<svg width="24" height="24" viewBox="0 0 24 24" fill="none" xmlns="http://www.w3.org/2000/svg">
<path d="M20.4663 11.1257C21.1516 9.97527 21.58 8.6902 21.722 7.35866C21.722 5.93745 21.1575 4.57446 20.1525 3.56951C19.1476 2.56457 17.7846 2 16.3634 2C14.9422 2 13.5792 2.56457 12.5742 3.56951C11.5693 4.57446 11.0047 5.93745 11.0047 7.35866C11.0697 8.25624 11.3085 9.13264 11.7079 9.9391H6.01964C5.20415 9.94029 4.41705 10.2387 3.80569 10.7784C3.19434 11.3181 2.80066 12.0621 2.69834 12.8711L2.02654 18.2329C1.96682 18.7043 2.00815 19.1829 2.14776 19.637C2.28738 20.0911 2.5221 20.5103 2.83629 20.8667C3.15049 21.223 3.53696 21.5084 3.97001 21.7038C4.40306 21.8992 4.87275 22.0002 5.34784 22H18.0303C18.5054 22.0002 18.9751 21.8992 19.4081 21.7038C19.8412 21.5084 20.2277 21.223 20.5419 20.8667C20.8561 20.5103 21.0908 20.0911 21.2304 19.637C21.37 19.1829 21.4113 18.7043 21.3516 18.2329L20.4663 11.1257ZM19.5434 19.9783C19.3544 20.1914 19.1224 20.362 18.8627 20.4789C18.603 20.5958 18.3214 20.6563 18.0366 20.6564H5.35412C5.06934 20.656 4.7879 20.595 4.52847 20.4775C4.26905 20.3601 4.03756 20.1888 3.84935 19.975C3.66115 19.7613 3.52054 19.51 3.43683 19.2378C3.35313 18.9656 3.32826 18.6787 3.36385 18.3962L4.03565 13.0407C4.09817 12.5551 4.33527 12.109 4.70268 11.7855C5.07008 11.462 5.54267 11.2833 6.03219 11.2827H12.3797C13.0076 12.4191 13.717 13.5869 14.4202 14.6291H5.66804V15.9727H16.3791C16.7127 15.9752 17.0415 15.893 17.3347 15.7338C17.6279 15.5745 17.8759 15.3435 18.0554 15.0623C18.4824 14.4345 18.9281 13.7564 19.3613 13.0595L20.0331 18.4024C20.0673 18.6848 20.0414 18.9712 19.957 19.2428C19.8726 19.5144 19.7316 19.7651 19.5434 19.9783ZM16.9379 14.3277C16.8841 14.4274 16.8043 14.5107 16.707 14.5687C16.6098 14.6267 16.4986 14.6574 16.3854 14.6574C16.2721 14.6574 16.1609 14.6267 16.0637 14.5687C15.9664 14.5107 15.8866 14.4274 15.8329 14.3277C13.6417 11.1257 12.3797 8.59551 12.3797 7.39005C12.3797 6.32435 12.8031 5.30231 13.5566 4.54875C14.3102 3.79519 15.3322 3.37184 16.3979 3.37184C17.4636 3.37184 18.4857 3.79519 19.2392 4.54875C19.9928 5.30231 20.4161 6.32435 20.4161 7.39005C20.3973 8.5704 19.1416 11.1006 16.9316 14.3277H16.9379Z" fill="#555555"/>
<path d="M18.0366 5.60723C17.8194 5.38902 17.5611 5.21615 17.2765 5.09867C16.992 4.98119 16.6869 4.92143 16.3791 4.92288C15.7571 4.92288 15.1607 5.16994 14.7209 5.60971C14.2811 6.04948 14.0341 6.64594 14.0341 7.26788C14.0341 7.88981 14.2811 8.48627 14.7209 8.92604C15.1607 9.36582 15.7571 9.61288 16.3791 9.61288C16.8427 9.6135 17.2961 9.47649 17.6818 9.2192C18.0675 8.96192 18.3681 8.59594 18.5456 8.16763C18.7231 7.73933 18.7695 7.26797 18.6789 6.81328C18.5883 6.35859 18.3647 5.94103 18.0366 5.61351V5.60723ZM17.0885 7.9742C16.9956 8.06782 16.8851 8.14209 16.7633 8.19274C16.6415 8.24339 16.5109 8.26941 16.3791 8.26929C16.1806 8.26895 15.9867 8.20985 15.8219 8.09945C15.657 7.98904 15.5285 7.83228 15.4526 7.64893C15.3767 7.46559 15.3568 7.26387 15.3954 7.06923C15.4341 6.8746 15.5295 6.69576 15.6696 6.55527C15.8607 6.38213 16.111 6.2891 16.3688 6.29545C16.6266 6.30179 16.8721 6.40703 17.0544 6.58937C17.2368 6.77171 17.342 7.01718 17.3483 7.27497C17.3547 7.53276 17.2617 7.78311 17.0885 7.9742Z" fill="#555555"/>
</svg>
