<svg width="24" height="25" viewBox="0 0 24 25" fill="none" xmlns="http://www.w3.org/2000/svg">
<path d="M20.4663 11.8562C21.1516 10.7057 21.58 9.42067 21.722 8.08912C21.722 6.66792 21.1575 5.30493 20.1525 4.29998C19.1476 3.29504 17.7846 2.73047 16.3634 2.73047C14.9422 2.73047 13.5792 3.29504 12.5742 4.29998C11.5693 5.30493 11.0047 6.66792 11.0047 8.08912C11.0697 8.98671 11.3085 9.86311 11.7079 10.6696H6.01964C5.20415 10.6708 4.41705 10.9691 3.80569 11.5088C3.19434 12.0485 2.80066 12.7926 2.69834 13.6016L2.02654 18.9634C1.96682 19.4347 2.00815 19.9134 2.14776 20.3675C2.28738 20.8216 2.5221 21.2408 2.83629 21.5971C3.15049 21.9535 3.53696 22.2389 3.97001 22.4343C4.40306 22.6297 4.87275 22.7307 5.34784 22.7305H18.0303C18.5054 22.7307 18.9751 22.6297 19.4081 22.4343C19.8412 22.2389 20.2277 21.9535 20.5419 21.5971C20.8561 21.2408 21.0908 20.8216 21.2304 20.3675C21.37 19.9134 21.4113 19.4347 21.3516 18.9634L20.4663 11.8562ZM19.5434 20.7088C19.3544 20.9219 19.1224 21.0925 18.8627 21.2094C18.603 21.3262 18.3214 21.3867 18.0366 21.3869H5.35412C5.06934 21.3864 4.7879 21.3255 4.52847 21.208C4.26905 21.0905 4.03756 20.9193 3.84935 20.7055C3.66115 20.4918 3.52054 20.2405 3.43683 19.9683C3.35313 19.6961 3.32826 19.4092 3.36385 19.1266L4.03565 13.7711C4.09817 13.2856 4.33527 12.8394 4.70268 12.5159C5.07008 12.1924 5.54267 12.0137 6.03219 12.0132H12.3797C13.0076 13.1496 13.717 14.3173 14.4202 15.3596H5.66804V16.7032H16.3791C16.7127 16.7057 17.0415 16.6234 17.3347 16.4642C17.6279 16.305 17.8759 16.074 18.0554 15.7928C18.4824 15.1649 18.9281 14.4869 19.3613 13.79L20.0331 19.1329C20.0673 19.4153 20.0414 19.7017 19.957 19.9733C19.8726 20.2449 19.7316 20.4956 19.5434 20.7088ZM16.9379 15.0582C16.8841 15.1579 16.8043 15.2411 16.707 15.2992C16.6098 15.3572 16.4986 15.3878 16.3854 15.3878C16.2721 15.3878 16.1609 15.3572 16.0637 15.2992C15.9664 15.2411 15.8866 15.1579 15.8329 15.0582C13.6417 11.8562 12.3797 9.32598 12.3797 8.12052C12.3797 7.05482 12.8031 6.03278 13.5566 5.27922C14.3102 4.52566 15.3322 4.10231 16.3979 4.10231C17.4636 4.10231 18.4857 4.52566 19.2392 5.27922C19.9928 6.03278 20.4161 7.05482 20.4161 8.12052C20.3973 9.30086 19.1416 11.8311 16.9316 15.0582H16.9379Z" fill="white"/>
<path d="M18.0366 6.33672C17.8194 6.11851 17.5611 5.94565 17.2765 5.82816C16.992 5.71068 16.6869 5.65092 16.3791 5.65237C15.7571 5.65237 15.1607 5.89943 14.7209 6.3392C14.2811 6.77898 14.0341 7.37544 14.0341 7.99737C14.0341 8.6193 14.2811 9.21576 14.7209 9.65554C15.1607 10.0953 15.7571 10.3424 16.3791 10.3424C16.8427 10.343 17.2961 10.206 17.6818 9.94869C18.0675 9.69141 18.3681 9.32543 18.5456 8.89713C18.7231 8.46882 18.7695 7.99746 18.6789 7.54277C18.5883 7.08808 18.3647 6.67053 18.0366 6.343V6.33672ZM17.0885 8.7037C16.9956 8.79731 16.8851 8.87158 16.7633 8.92223C16.6415 8.97288 16.5109 8.9989 16.3791 8.99878C16.1806 8.99844 15.9867 8.93934 15.8219 8.82894C15.657 8.71853 15.5285 8.56177 15.4526 8.37842C15.3767 8.19508 15.3568 7.99336 15.3954 7.79873C15.4341 7.60409 15.5295 7.42525 15.6696 7.28477C15.8607 7.11162 16.111 7.01859 16.3688 7.02494C16.6266 7.03129 16.8721 7.13652 17.0544 7.31886C17.2368 7.5012 17.342 7.74668 17.3483 8.00446C17.3547 8.26225 17.2617 8.5126 17.0885 8.7037Z" fill="white"/>
</svg>
