<svg width="24" height="25" viewBox="0 0 24 25" fill="none" xmlns="http://www.w3.org/2000/svg">
<path d="M21 0.468323H3C1.3455 0.468323 0 1.81382 0 3.46832V16.9683C0 18.6228 1.3455 19.9683 3 19.9683H11.25V23.7183C11.25 23.8666 11.2939 24.0116 11.3763 24.135C11.4586 24.2584 11.5757 24.3545 11.7127 24.4113C11.8498 24.4681 12.0007 24.4829 12.1462 24.4539C12.2917 24.425 12.4254 24.3535 12.5303 24.2486L16.8105 19.9683H21C22.6545 19.9683 24 18.6228 24 16.9683V3.46832C24 1.81382 22.6545 0.468323 21 0.468323ZM22.5 16.9683C22.5 17.7956 21.8272 18.4683 21 18.4683H16.5C16.4015 18.4682 16.3039 18.4875 16.2129 18.5252C16.1219 18.5629 16.0393 18.6183 15.9697 18.6881L12.75 21.9078V19.2183C12.75 18.8043 12.4148 18.4683 12 18.4683H3C2.17275 18.4683 1.5 17.7956 1.5 16.9683V3.46832C1.5 2.64107 2.17275 1.96832 3 1.96832H21C21.8272 1.96832 22.5 2.64107 22.5 3.46832V16.9683Z" fill="#12B76A"/>
<path d="M12.6804 5.4056C12.5574 5.1401 12.2919 4.96985 11.9994 4.96985C11.7069 4.96985 11.4414 5.1401 11.3184 5.4056L6.81836 15.1556L8.18036 15.7841L9.71111 12.4683H14.2884L15.8184 15.7841L17.1804 15.1556L12.6804 5.4056ZM10.4034 10.9683L11.9994 7.50935L13.5954 10.9683H10.4034Z" fill="#12B76A"/>
</svg>
