<svg width="20" height="20" viewBox="0 0 20 20" fill="none" xmlns="http://www.w3.org/2000/svg">
<path fill-rule="evenodd" clip-rule="evenodd" d="M10 18C14.4183 18 18 14.4183 18 10C18 5.58172 14.4183 2 10 2C5.58172 2 2 5.58172 2 10C2 14.4183 5.58172 18 10 18ZM14.1441 7.92259C14.4696 7.59715 14.4696 7.06951 14.1441 6.74408C13.8187 6.41864 13.291 6.41864 12.9656 6.74408L9.11042 10.5993L7.03301 8.52186C6.70757 8.19642 6.17993 8.19642 5.85449 8.52186C5.52906 8.84729 5.52906 9.37493 5.85449 9.70037L8.52116 12.367L9.11042 12.9563L9.69967 12.367L14.1441 7.92259Z" fill="#DDDDDD" stroke="#999999"/>
</svg>
