<svg width="30" height="31" viewBox="0 0 30 31" fill="none" xmlns="http://www.w3.org/2000/svg">
<path d="M28.25 30.5C24.7778 30.5 21.3406 29.75 17.9383 28.25C14.5361 26.75 11.4456 24.6111 8.66667 21.8333C5.88889 19.0556 3.75 15.9722 2.25 12.5833C0.75 9.19444 0 5.75 0 2.25V0.5H9.83333L11.375 8.875L6.625 13.6667C7.23611 14.75 7.91667 15.7778 8.66667 16.75C9.41667 17.7222 10.2222 18.625 11.0833 19.4583C11.8889 20.2639 12.7711 21.035 13.73 21.7717C14.6889 22.5083 15.7233 23.1956 16.8333 23.8333L21.6667 19L30 20.7083V30.5H28.25Z" fill="white"/>
</svg>
