<svg width="24" height="24" viewBox="0 0 24 24" fill="none" xmlns="http://www.w3.org/2000/svg">
<g clip-path="url(#clip0_8960_16389)">
<path d="M21.3249 23.0554H6.33997C6.18484 23.0289 6.03028 23.0006 5.87515 22.9758C3.35209 22.579 1.23042 20.4602 1.00377 17.6944C0.903229 16.4552 1.20292 15.2165 1.85879 14.1604C2.51465 13.1042 3.49208 12.2864 4.64736 11.8271C5.12948 11.6367 5.64505 11.5289 6.16754 11.3767V11.1535C6.16754 8.44068 6.16754 5.72808 6.16754 3.01567C6.16754 1.77058 6.98818 0.949937 8.23558 0.949937C11.452 0.949168 14.6687 0.947822 17.8855 0.9459C18.0212 0.941139 18.1564 0.965373 18.282 1.01699C18.4076 1.0686 18.5207 1.1464 18.6139 1.24521C19.9714 2.61352 21.3351 3.97703 22.705 5.33573C22.807 5.43086 22.8874 5.54673 22.9408 5.67556C22.9942 5.80439 23.0194 5.94317 23.0146 6.08256C23.0077 8.91761 23.0064 11.7525 23.0106 14.5871C23.0106 16.7457 23.0152 18.9037 23.0106 21.0623C23.0077 21.9228 22.6029 22.5416 21.8186 22.9003C21.66 22.9712 21.4887 23.0046 21.3249 23.0554ZM17.3953 2.24463H8.21655C7.71309 2.24463 7.4628 2.49549 7.4628 3.00068V11.432C8.49904 11.5537 9.48518 11.9453 10.3227 12.5675C10.4306 12.6437 10.559 12.6857 10.6912 12.6881C13.512 12.695 16.3328 12.6967 19.1536 12.6933C19.2257 12.6933 19.2978 12.6933 19.3693 12.6933C19.5308 12.6988 19.6844 12.7645 19.7998 12.8776C19.9152 12.9908 19.9841 13.143 19.9929 13.3043C20.0016 13.4657 19.9496 13.6245 19.8471 13.7494C19.7446 13.8743 19.5991 13.9564 19.4391 13.9793C19.3533 13.9888 19.267 13.9917 19.1807 13.9879H11.6606C12.1749 14.7656 12.5002 15.6527 12.6104 16.5785H13.1012C15.1519 16.5785 17.2029 16.5785 19.254 16.5785C19.5648 16.5785 19.8047 16.6886 19.9322 16.9781C20.1277 17.4228 19.7949 17.8743 19.273 17.8749C17.1358 17.8749 14.9985 17.8749 12.8613 17.8749H12.6098C12.5214 18.6288 12.2895 19.3588 11.9265 20.0254C11.5666 20.6823 11.0874 21.2422 10.4847 21.7607H20.9287C21.4749 21.7607 21.7136 21.5202 21.7136 20.97V6.56237H21.4576C20.3426 6.56237 19.2277 6.56237 18.1127 6.56237C17.6646 6.56237 17.3993 6.29882 17.3982 5.85419C17.3982 5.13504 17.3982 4.41532 17.3982 3.6956L17.3953 2.24463ZM6.8094 12.6938C5.91256 12.6956 5.03637 12.9632 4.29169 13.463C3.54702 13.9628 2.96731 14.6723 2.62593 15.5016C2.28454 16.3309 2.19681 17.2429 2.37383 18.1221C2.55086 19.0013 2.98468 19.8082 3.62042 20.4408C4.25616 21.0734 5.06525 21.5032 5.94532 21.6759C6.82539 21.8485 7.7369 21.7563 8.56452 21.4108C9.39215 21.0653 10.0987 20.4821 10.5948 19.7349C11.0909 18.9878 11.3542 18.1103 11.3515 17.2134C11.3461 16.0125 10.8652 14.8626 10.0139 14.0155C9.16259 13.1685 8.01034 12.6932 6.8094 12.6938ZM18.7084 3.24635V5.25557H20.7171L18.7084 3.24635Z" fill="#666666"/>
<path d="M14.5848 8.80797C16.1527 8.80797 17.7205 8.80797 19.2884 8.80797C19.7947 8.80797 20.1206 9.25837 19.9343 9.69782C19.8879 9.82033 19.8042 9.92518 19.6951 9.99761C19.5859 10.07 19.4568 10.1064 19.3259 10.1015C18.9303 10.1061 18.5352 10.1015 18.1396 10.1015H9.98451C9.89135 10.106 9.79798 10.1006 9.70597 10.0854C9.54674 10.0533 9.40546 9.96239 9.31031 9.83076C9.21516 9.69912 9.17315 9.53645 9.19266 9.37521C9.21217 9.21396 9.29177 9.06601 9.41556 8.96086C9.53936 8.85572 9.69825 8.80112 9.86052 8.80797C11.2915 8.8049 12.7225 8.8049 14.1535 8.80797H14.5848Z" fill="#666666"/>
<path d="M6.80169 18.1429C6.30746 18.6423 5.83688 19.1279 5.35418 19.6008C4.96548 19.9826 4.3784 19.8315 4.24634 19.3245C4.18002 19.0702 4.2671 18.8586 4.44703 18.6786C4.8686 18.2565 5.29017 17.8332 5.71577 17.4134C5.78028 17.3593 5.84893 17.3103 5.92107 17.2669C5.82996 17.1688 5.77921 17.1112 5.725 17.057C5.30343 16.6348 4.87898 16.2144 4.45626 15.7882C4.15984 15.4883 4.14369 15.0962 4.4107 14.8286C4.67771 14.561 5.0716 14.5743 5.37033 14.8713C5.84437 15.343 6.31265 15.8205 6.86513 16.3788C6.92626 16.2721 6.96029 16.1694 7.02891 16.0991C7.44068 15.6769 7.8559 15.2577 8.2792 14.8471C8.66674 14.471 9.25959 14.6308 9.383 15.1394C9.44759 15.4041 9.34436 15.6164 9.15924 15.7998C8.68981 16.2663 8.2221 16.734 7.73479 17.2196C7.79246 17.2819 7.84206 17.339 7.89569 17.3926C8.32706 17.8257 8.76478 18.253 9.19038 18.6919C9.56754 19.0818 9.41183 19.6723 8.90203 19.7974C8.64771 19.862 8.43664 19.7721 8.25728 19.5921C7.8336 19.1638 7.40857 18.7363 6.9822 18.3096C6.9303 18.26 6.87724 18.2132 6.80169 18.1429Z" fill="#666666"/>
</g>
<defs>
<clipPath id="clip0_8960_16389">
<rect width="24" height="24" fill="white"/>
</clipPath>
</defs>
</svg>
