<svg width="21" height="22" viewBox="0 0 21 22" fill="none" xmlns="http://www.w3.org/2000/svg">
<path d="M1.5 3.38867V3.38867C2.81512 3.38867 3.95428 4.30096 4.24164 5.5843L4.425 6.40316M4.425 6.40316L5.54711 12.4883C5.80953 13.9113 7.05034 14.9442 8.49737 14.9442H14.9379C16.3005 14.9442 17.4919 14.026 17.839 12.7085L19.5 6.40316H4.425Z" stroke="#E6F7FB" stroke-width="1.5" stroke-linecap="round" stroke-linejoin="round"/>
<path d="M8 17.2777C8 17.6842 7.60928 18.111 7 18.111C6.39072 18.111 6 17.6842 6 17.2777C6 16.8712 6.39072 16.4443 7 16.4443C7.60928 16.4443 8 16.8712 8 17.2777Z" fill="#E6F7FB" stroke="#E6F7FB"/>
<path d="M15 17.2777C15 17.6842 14.6093 18.111 14 18.111C13.3907 18.111 13 17.6842 13 17.2777C13 16.8712 13.3907 16.4443 14 16.4443C14.6093 16.4443 15 16.8712 15 17.2777Z" fill="#E6F7FB" stroke="#E6F7FB"/>
</svg>
