<svg width="83" height="26" viewBox="0 0 83 26" fill="none" xmlns="http://www.w3.org/2000/svg">
<path d="M70.9613 5.04102V16.6698C70.9613 16.689 70.9613 16.7082 70.9613 16.7293C70.9562 16.9745 70.9156 17.2175 70.8409 17.4498C70.7534 17.6592 70.6585 17.859 70.56 18.0511C69.9069 19.3056 69.0131 20.1816 67.8893 20.6542C67.2174 20.9297 66.5016 21.0673 65.7806 21.0596C65.2806 21.0565 64.7821 21.0024 64.292 20.8982C65.4613 22.076 67.0174 22.7327 68.6354 22.731C70.3048 22.7305 71.9056 22.0318 73.0858 20.7885C74.266 19.5452 74.929 17.8591 74.929 16.1011V5.04102H70.9613Z" fill="#352683"/>
<path d="M75.7513 16.5334H77.5427C78.9898 16.5334 80.3776 15.928 81.4008 14.8504C82.4241 13.7727 82.9989 12.3112 82.9989 10.7872C82.9989 9.26321 82.4241 7.80165 81.4008 6.72403C80.3776 5.64641 78.9898 5.04102 77.5427 5.04102H70.9609V8.93712H77.2727C77.7386 8.93712 78.1855 9.13204 78.5149 9.47899C78.8444 9.82595 79.0294 10.2965 79.0294 10.7872C79.0294 11.2779 78.8444 11.7484 78.5149 12.0954C78.1855 12.4423 77.7386 12.6373 77.2727 12.6373H75.7513V16.5334Z" fill="#352683"/>
<path d="M66.3019 16.6707V5.44922L62.3379 9.62389V16.7322C62.3507 19.3027 64.7094 20.611 67.0608 19.9597C67.2318 19.9128 67.3999 19.8551 67.5643 19.7868C67.9493 19.624 68.3076 19.3984 68.626 19.1182C68.0102 19.1162 67.4202 18.8577 66.9847 18.3991C66.5493 17.9406 66.3038 17.3192 66.3019 16.6707Z" fill="#352683"/>
<path d="M61.3654 9.10855L63.2571 7.11439L65.2254 5.04146H56.1244V0.666992H52.4012V5.04146H50.6572V9.10855H52.4012V17.237C52.4012 20.9 53.9597 22.7308 57.0766 22.7295H59.4007V18.9622H57.6823C57.1186 18.9622 56.7173 18.8315 56.4801 18.5626C56.243 18.2936 56.1244 17.8652 56.1244 17.2696V9.10855H61.3654Z" fill="#352683"/>
<path d="M27.0069 5.17188C25.3703 5.1715 23.7703 5.68226 22.4093 6.63958C21.0483 7.59689 19.9874 8.95776 19.3609 10.5501C18.7343 12.1424 18.5702 13.8946 18.8892 15.5851C19.2083 17.2757 19.9963 18.8286 21.1534 20.0475C22.3106 21.2665 23.785 22.0966 25.3901 22.433C26.9953 22.7694 28.6592 22.597 30.1713 21.9374C31.6834 21.2779 32.9758 20.161 33.8851 18.7279C34.7944 17.2948 35.2798 15.6099 35.2798 13.8862C35.2798 11.5754 34.4082 9.35914 32.8568 7.72493C31.3054 6.09073 29.2012 5.17238 27.0069 5.17188ZM27.0069 18.6661C26.1093 18.6661 25.2318 18.3857 24.4854 17.8605C23.739 17.3353 23.1573 16.5888 22.8138 15.7154C22.4703 14.842 22.3804 13.8809 22.5555 12.9537C22.7306 12.0265 23.1629 11.1749 23.7976 10.5064C24.4324 9.83791 25.2411 9.38268 26.1215 9.19825C27.0019 9.01381 27.9145 9.10847 28.7438 9.47024C29.5731 9.83202 30.282 10.4447 30.7807 11.2307C31.2794 12.0167 31.5456 12.9409 31.5456 13.8862C31.5458 14.514 31.4286 15.1357 31.2006 15.7157C30.9726 16.2957 30.6383 16.8228 30.2168 17.2667C29.7953 17.7106 29.2949 18.0626 28.7441 18.3027C28.1933 18.5429 27.603 18.6663 27.0069 18.6661Z" fill="#352683"/>
<path d="M35.4455 5.04102H31.7168V22.7291H35.4455V5.04102Z" fill="#352683"/>
<path d="M47.0638 5.03809C45.2166 5.03793 43.4177 5.65904 41.9291 6.81091C40.4406 7.96277 39.3402 9.58519 38.7885 11.4417C38.2367 13.2982 38.2623 15.2918 38.8616 17.1319C39.4609 18.972 40.6025 20.5624 42.1202 21.6715V14.1789C42.119 13.4945 42.246 12.8166 42.4939 12.1839C42.7418 11.5512 43.1058 10.9763 43.565 10.492C44.0242 10.0077 44.5696 9.62349 45.17 9.36145C45.7703 9.09942 46.4139 8.96467 47.0638 8.96493C47.2865 8.96536 47.5089 8.98141 47.7296 9.01296V5.06498C47.4998 5.04769 47.2772 5.03809 47.0638 5.03809Z" fill="#352683"/>
<path d="M42.1105 5.04102H38.3818V22.731H42.1105V5.04102Z" fill="#352683"/>
<path d="M12.6027 16.4681C12.0692 17.4193 11.2557 18.1613 10.2855 18.5814C9.31527 19.0015 8.24142 19.0767 7.22692 18.7957C6.21242 18.5147 5.31268 17.8928 4.66426 17.0244C4.01584 16.156 3.65416 15.0885 3.63411 13.984C3.61406 12.8794 3.93675 11.7981 4.55319 10.9043C5.16962 10.0104 6.04615 9.35274 7.04971 9.03112C8.05327 8.70951 9.12907 8.74149 10.1138 9.12222C11.0985 9.50296 11.9384 10.2116 12.506 11.1407H16.4992C15.8767 9.1161 14.5862 7.39324 12.8615 6.28422C11.1368 5.17519 9.09204 4.75333 7.09751 5.09507C5.10298 5.4368 3.29062 6.51952 1.98871 8.14711C0.686793 9.7747 -0.018574 11.8395 0.000371966 13.9676C0.0193179 16.0956 0.761324 18.1461 2.09199 19.7477C3.42265 21.3493 5.25397 22.3961 7.25423 22.6983C9.25449 23.0006 11.2914 22.5385 12.996 21.3956C14.7007 20.2527 15.9602 18.5046 16.5466 16.4681H12.6027Z" fill="#352683"/>
<path d="M71.406 25.6672C72.1102 25.6672 72.6811 25.066 72.6811 24.3243C72.6811 23.5827 72.1102 22.9814 71.406 22.9814C70.7018 22.9814 70.1309 23.5827 70.1309 24.3243C70.1309 25.066 70.7018 25.6672 71.406 25.6672Z" fill="#352683"/>
<path d="M65.8591 25.6672C66.5633 25.6672 67.1342 25.066 67.1342 24.3243C67.1342 23.5827 66.5633 22.9814 65.8591 22.9814C65.1549 22.9814 64.584 23.5827 64.584 24.3243C64.584 25.066 65.1549 25.6672 65.8591 25.6672Z" fill="#352683"/>
</svg>
