<svg width="59" height="58" viewBox="0 0 59 58" fill="none" xmlns="http://www.w3.org/2000/svg">
<ellipse cx="43.5" cy="40.2" rx="4" ry="4" stroke="#00215B" stroke-width="1.8"/>
<ellipse cx="23.5" cy="40.2" rx="4" ry="4" stroke="#00215B" stroke-width="1.8"/>
<path d="M19.5 40.1448C17.3066 40.0355 15.9382 39.7092 14.9645 38.7355C13.9907 37.7617 13.6644 36.3934 13.5551 34.2M27.5 40.2H39.5M47.5 40.1448C49.6935 40.0355 51.0618 39.7092 52.0355 38.7355C53.5 37.271 53.5 34.914 53.5 30.2V26.2H44.1C42.611 26.2 41.8665 26.2 41.2639 26.0042C40.0462 25.6085 39.0914 24.6538 38.6958 23.436C38.5 22.8335 38.5 22.089 38.5 20.6C38.5 18.3664 38.5 17.2496 38.2063 16.3458C37.6128 14.5192 36.1807 13.0871 34.3541 12.4936C33.4503 12.2 32.3335 12.2 30.1 12.2H13.5" stroke="#00215B" stroke-width="1.8" stroke-linecap="round" stroke-linejoin="round"/>
<path d="M5.5 20.2H17.5" stroke="#00215B" stroke-width="1.8" stroke-linecap="round" stroke-linejoin="round"/>
<path d="M9.5 26.2H17.5" stroke="#00215B" stroke-width="1.8" stroke-linecap="round" stroke-linejoin="round"/>
<path d="M38.5 16.2H42.1424C45.0531 16.2 46.5085 16.2 47.6928 16.9074C48.8772 17.6148 49.5672 18.8962 50.9472 21.459L53.5 26.2" stroke="#00215B" stroke-width="1.8" stroke-linecap="round" stroke-linejoin="round"/>
</svg>
