<svg width="24" height="24" viewBox="0 0 24 24" fill="none" xmlns="http://www.w3.org/2000/svg">
<path d="M17.0321 22.875C17.0321 23.1734 16.9136 23.4595 16.7026 23.6705C16.4916 23.8815 16.2055 24 15.9071 24H5.30151C4.30729 23.9989 3.35412 23.6034 2.6511 22.9004C1.94808 22.1974 1.55263 21.2442 1.55151 20.25V3.75C1.55263 2.75578 1.94808 1.8026 2.6511 1.09958C3.35412 0.396563 4.30729 0.00111661 5.30151 0L15.9071 0C16.2055 0 16.4916 0.118526 16.7026 0.329505C16.9136 0.540483 17.0321 0.826631 17.0321 1.125C17.0321 1.42337 16.9136 1.70952 16.7026 1.9205C16.4916 2.13147 16.2055 2.25 15.9071 2.25H5.30151C4.90382 2.25043 4.52254 2.40861 4.24133 2.68982C3.96012 2.97103 3.80195 3.35231 3.80151 3.75V20.25C3.80194 20.6477 3.96011 21.029 4.24132 21.3102C4.52253 21.5914 4.90382 21.7496 5.30151 21.75H15.9071C16.2055 21.75 16.4916 21.8685 16.7026 22.0795C16.9136 22.2905 17.0321 22.5766 17.0321 22.875ZM22.1205 11.2045L16.7744 5.85834C16.6704 5.75196 16.5463 5.66728 16.4093 5.60919C16.2723 5.55111 16.1251 5.52078 15.9763 5.51995C15.8275 5.51913 15.6801 5.54783 15.5424 5.60439C15.4048 5.66096 15.2798 5.74426 15.1746 5.84949C15.0693 5.95471 14.9861 6.07975 14.9295 6.21739C14.873 6.35502 14.8443 6.5025 14.8451 6.6513C14.846 6.80009 14.8763 6.94724 14.9344 7.08422C14.9925 7.22121 15.0772 7.3453 15.1836 7.44933L18.6091 10.875H9.75272C9.45435 10.875 9.1682 10.9935 8.95722 11.2045C8.74624 11.4155 8.62772 11.7016 8.62772 12C8.62772 12.2984 8.74624 12.5845 8.95722 12.7955C9.1682 13.0065 9.45435 13.125 9.75272 13.125H18.609L15.1834 16.5506C15.0785 16.655 14.9952 16.779 14.9383 16.9156C14.8813 17.0523 14.8519 17.1988 14.8517 17.3468C14.8515 17.4947 14.8805 17.6413 14.9371 17.7781C14.9936 17.9149 15.0766 18.0391 15.1813 18.1438C15.2859 18.2484 15.4102 18.3314 15.5469 18.3879C15.6837 18.4445 15.8303 18.4735 15.9783 18.4733C16.1263 18.4731 16.2728 18.4437 16.4094 18.3868C16.546 18.3299 16.67 18.2465 16.7744 18.1416L22.1205 12.7955C22.3315 12.5845 22.45 12.2984 22.45 12C22.45 11.7017 22.3315 11.4155 22.1205 11.2045Z" fill="#555555"/>
</svg>
