<svg width="37" height="37" viewBox="0 0 37 37" fill="none" xmlns="http://www.w3.org/2000/svg">
<path d="M18.5053 -0.00543213C21.2999 -0.00381704 24.0578 0.630702 26.5721 1.85051C29.0864 3.07032 31.2918 4.84373 33.0227 7.03767C34.7537 9.23161 35.9653 11.7891 36.5666 14.5182C37.1679 17.2473 37.1432 20.0772 36.4946 22.7954C35.8459 25.5136 34.59 28.0497 32.8211 30.2132C31.0523 32.3766 28.8164 34.1114 26.2813 35.2873C23.7461 36.4632 20.9776 37.0496 18.1834 37.0026C15.3893 36.9556 12.642 36.2764 10.1479 35.0159L9.86798 34.8656L1.43648 36.9706C1.27421 37.0114 1.10502 37.0165 0.940591 36.9855C0.776158 36.9546 0.620395 36.8884 0.48405 36.7914C0.347705 36.6944 0.234025 36.569 0.150855 36.4238C0.0676852 36.2786 0.0170051 36.1171 0.002313 35.9505V35.7608L0.0346978 35.5688L2.13968 27.1396L1.99395 26.862C0.935409 24.7782 0.283803 22.5117 0.0740215 20.1839L0.0161921 19.3003L0 18.4999C0 13.592 1.94967 8.88509 5.42009 5.41466C8.89052 1.94423 13.5974 -0.00543213 18.5053 -0.00543213ZM19.6619 20.8131H12.7224L12.5142 20.8316C12.2476 20.8799 12.0063 21.0203 11.8326 21.2283C11.6589 21.4363 11.5637 21.6987 11.5637 21.9697C11.5637 22.2407 11.6589 22.5031 11.8326 22.7111C12.0063 22.9191 12.2476 23.0595 12.5142 23.1077L12.7224 23.1263H19.6619L19.8701 23.1077C20.1368 23.0595 20.378 22.9191 20.5518 22.7111C20.7255 22.5031 20.8206 22.2407 20.8206 21.9697C20.8206 21.6987 20.7255 21.4363 20.5518 21.2283C20.378 21.0203 20.1368 20.8799 19.8701 20.8316L19.6619 20.8131ZM24.2883 13.8736H12.7224L12.5142 13.8921C12.2476 13.9404 12.0063 14.0808 11.8326 14.2888C11.6589 14.4968 11.5637 14.7592 11.5637 15.0302C11.5637 15.3012 11.6589 15.5636 11.8326 15.7716C12.0063 15.9796 12.2476 16.12 12.5142 16.1682L12.7224 16.1867H24.2883L24.4965 16.1682C24.7631 16.12 25.0044 15.9796 25.1781 15.7716C25.3518 15.5636 25.447 15.3012 25.447 15.0302C25.447 14.7592 25.3518 14.4968 25.1781 14.2888C25.0044 14.0808 24.7631 13.9404 24.4965 13.8921L24.2883 13.8736Z" fill="white"/>
</svg>
