<svg width="24" height="24" viewBox="0 0 24 24" fill="none" xmlns="http://www.w3.org/2000/svg">
<path d="M6.28571 7C6.28571 6.81056 6.36097 6.62888 6.49492 6.49492C6.62888 6.36097 6.81056 6.28571 7 6.28571H9.85714C10.0466 6.28571 10.2283 6.36097 10.3622 6.49492C10.4962 6.62888 10.5714 6.81056 10.5714 7C10.5714 7.18944 10.4962 7.37112 10.3622 7.50508C10.2283 7.63903 10.0466 7.71429 9.85714 7.71429H7C6.81056 7.71429 6.62888 7.63903 6.49492 7.50508C6.36097 7.37112 6.28571 7.18944 6.28571 7ZM12 9.14286H7C6.81056 9.14286 6.62888 9.21811 6.49492 9.35207C6.36097 9.48602 6.28571 9.6677 6.28571 9.85714C6.28571 10.0466 6.36097 10.2283 6.49492 10.3622C6.62888 10.4962 6.81056 10.5714 7 10.5714H12C12.1894 10.5714 12.3711 10.4962 12.5051 10.3622C12.639 10.2283 12.7143 10.0466 12.7143 9.85714C12.7143 9.6677 12.639 9.48602 12.5051 9.35207C12.3711 9.21811 12.1894 9.14286 12 9.14286ZM12 12H7C6.81056 12 6.62888 12.0753 6.49492 12.2092C6.36097 12.3432 6.28571 12.5248 6.28571 12.7143C6.28571 12.9037 6.36097 13.0854 6.49492 13.2194C6.62888 13.3533 6.81056 13.4286 7 13.4286H12C12.1894 13.4286 12.3711 13.3533 12.5051 13.2194C12.639 13.0854 12.7143 12.9037 12.7143 12.7143C12.7143 12.5248 12.639 12.3432 12.5051 12.2092C12.3711 12.0753 12.1894 12 12 12ZM21.2857 6.28571C21.2875 6.97184 21.1241 7.64832 20.8094 8.25798C20.4946 8.86763 20.0377 9.39255 19.4772 9.78837C18.9168 10.1842 18.2693 10.4393 17.5894 10.532C16.9096 10.6248 16.2174 10.5526 15.5714 10.3214V19.8571C15.5714 20.4255 15.3457 20.9705 14.9438 21.3724C14.5419 21.7742 13.9969 22 13.4286 22H4.14286C3.57454 22 3.02949 21.7742 2.62763 21.3724C2.22576 20.9705 2 20.4255 2 19.8571V18.4286C2 18.2391 2.07525 18.0574 2.20921 17.9235C2.34316 17.7895 2.52485 17.7143 2.71429 17.7143H3.42857V4.85714C3.42857 4.09938 3.72959 3.37266 4.26541 2.83684C4.80123 2.30102 5.52795 2 6.28571 2H14.8571C14.9698 2.00107 15.0805 2.0292 15.1799 2.08204C15.2794 2.13487 15.3646 2.21085 15.4286 2.30357C16.078 2.04542 16.7807 1.95032 17.4754 2.02659C18.1701 2.10286 18.8354 2.34819 19.4134 2.7411C19.9913 3.13401 20.4641 3.66255 20.7905 4.28047C21.1169 4.89839 21.2869 5.58688 21.2857 6.28571ZM4.14286 20.5714H11.4171C11.3325 20.3427 11.2881 20.101 11.2857 19.8571V19.1429H3.42857V19.8571C3.42857 20.0466 3.50383 20.2283 3.63778 20.3622C3.77174 20.4962 3.95342 20.5714 4.14286 20.5714ZM14.1429 9.47143C13.7227 9.09738 13.3807 8.64388 13.1366 8.13706C12.8925 7.63024 12.7511 7.08012 12.7205 6.5184C12.69 5.95669 12.7709 5.39448 12.9586 4.86418C13.1463 4.33388 13.4372 3.84597 13.8143 3.42857H6.28571C5.90683 3.42857 5.54347 3.57908 5.27556 3.84699C5.00765 4.1149 4.85714 4.47826 4.85714 4.85714V17.7143H12C12.1894 17.7143 12.3711 17.7895 12.5051 17.9235C12.639 18.0574 12.7143 18.2391 12.7143 18.4286V19.8571C12.7143 20.0466 12.7895 20.2283 12.9235 20.3622C13.0574 20.4962 13.2391 20.5714 13.4286 20.5714C13.618 20.5714 13.7997 20.4962 13.9336 20.3622C14.0676 20.2283 14.1429 20.0466 14.1429 19.8571V9.47143ZM19.8571 6.28571C19.8571 5.72062 19.6896 5.16823 19.3756 4.69837C19.0617 4.22852 18.6155 3.86231 18.0934 3.64606C17.5713 3.42981 16.9968 3.37323 16.4426 3.48347C15.8884 3.59371 15.3793 3.86583 14.9797 4.26541C14.5801 4.66499 14.308 5.17408 14.1978 5.72831C14.0875 6.28255 14.1441 6.85702 14.3603 7.3791C14.5766 7.90117 14.9428 8.34739 15.4127 8.66134C15.8825 8.97529 16.4349 9.14286 17 9.14286C17.7578 9.14286 18.4845 8.84184 19.0203 8.30602C19.5561 7.7702 19.8571 7.04348 19.8571 6.28571ZM18.4286 5.57143H17.7143C17.7143 5.38199 17.639 5.20031 17.5051 5.06635C17.3711 4.9324 17.1894 4.85714 17 4.85714C16.8106 4.85714 16.6289 4.9324 16.4949 5.06635C16.361 5.20031 16.2857 5.38199 16.2857 5.57143V6.28571C16.2857 6.47515 16.361 6.65684 16.4949 6.79079C16.6289 6.92475 16.8106 7 17 7H18.4286C18.618 7 18.7997 6.92475 18.9336 6.79079C19.0676 6.65684 19.1429 6.47515 19.1429 6.28571C19.1429 6.09627 19.0676 5.91459 18.9336 5.78064C18.7997 5.64668 18.618 5.57143 18.4286 5.57143Z" fill="#555555"/>
</svg>
