<svg width="24" height="24" viewBox="0 0 24 24" fill="none" xmlns="http://www.w3.org/2000/svg">
<path fill-rule="evenodd" clip-rule="evenodd" d="M19.7132 4.14271V19.8574C19.7132 20.7037 19.2147 21.4708 18.4412 21.8151C17.6676 22.1593 16.7634 22.0151 16.1349 21.448L12.3351 18.0196C12.063 17.7746 11.6502 17.7746 11.3781 18.0196L7.57832 21.448C6.9498 22.0151 6.04557 22.1593 5.27205 21.8151C4.49854 21.4708 4 20.7037 4 19.8574V4.14271C4 3.57418 4.2257 3.02921 4.62782 2.62781C5.02922 2.2257 5.57418 2 6.14271 2H17.5705C18.139 2 18.684 2.2257 19.0854 2.62781C19.4875 3.02921 19.7132 3.57418 19.7132 4.14271ZM18.2847 4.14271C18.2847 3.95344 18.2097 3.77131 18.0755 3.63774C17.9419 3.50347 17.7598 3.42847 17.5705 3.42847H6.14271C5.95344 3.42847 5.77131 3.50347 5.63774 3.63774C5.50347 3.77131 5.42847 3.95344 5.42847 4.14271V19.8574C5.42847 20.1395 5.59489 20.3952 5.85273 20.5101C6.11057 20.6244 6.41198 20.5766 6.62125 20.3873L10.421 16.959C11.2366 16.2233 12.4766 16.2233 13.2922 16.959L17.092 20.3873C17.3012 20.5766 17.6026 20.6244 17.8605 20.5101C18.1183 20.3952 18.2847 20.1395 18.2847 19.8574V4.14271ZM11.8566 6.48826C13.1001 5.36977 14.9278 5.51475 15.9142 6.31184C17.0462 7.22606 17.2055 9.05023 16.0785 10.8794C15.3899 12.0607 13.6579 13.2685 12.1952 14.0563C11.9837 14.1706 11.7295 14.1706 11.5181 14.0563C10.0553 13.2685 8.32327 12.0607 7.63475 10.8794C6.50769 9.05023 6.66767 7.22606 7.79902 6.31184C8.78539 5.51475 10.6131 5.36977 11.8566 6.48826ZM11.2495 7.97245C10.6095 6.93823 9.33678 6.90608 8.69682 7.42319C8.4097 7.6546 8.28542 8.0103 8.28542 8.41599C8.28542 8.94095 8.48398 9.53662 8.85538 10.1359C8.85895 10.1423 8.86252 10.1487 8.86609 10.1544C9.3932 11.0672 10.6917 11.9565 11.8566 12.6121C13.0208 11.9565 14.32 11.0672 14.8471 10.1544C14.8507 10.1487 14.8543 10.1423 14.8578 10.1359C15.2292 9.53662 15.4278 8.94095 15.4278 8.41599C15.4278 8.0103 15.3035 7.6546 15.0164 7.42319C14.3764 6.90608 13.1037 6.93823 12.4637 7.97245C12.3337 8.18243 12.1037 8.31027 11.8566 8.31027C11.6095 8.31027 11.3795 8.18243 11.2495 7.97245Z" fill="#555555"/>
</svg>
