<svg width="53" height="54" viewBox="0 0 53 54" fill="none" xmlns="http://www.w3.org/2000/svg">
<circle cx="26.5" cy="27.2305" r="26.5" fill="#A4A1AA" fill-opacity="0.2"/>
<path d="M34 22.7305L26 26.7305L18 22.7305" stroke="#131118" stroke-width="1.5" stroke-linecap="round" stroke-linejoin="round"/>
<path d="M32.6246 20.3981L27.6246 18.0887C26.5903 17.611 25.4097 17.611 24.3754 18.0887L19.3754 20.3981C17.9309 21.0653 17 22.5539 17 24.1966V31.2643C17 32.907 17.9309 34.3957 19.3754 35.0629L24.3754 37.3722C25.4097 37.8499 26.5903 37.8499 27.6246 37.3722L32.6246 35.0629C34.0691 34.3957 35 32.907 35 31.2643V24.1966C35 22.5539 34.0691 21.0653 32.6246 20.3981Z" stroke="#131118" stroke-width="1.5" stroke-linecap="round" stroke-linejoin="round"/>
<path d="M22 19.7305L31 24.7305V35.2305" stroke="#131118" stroke-width="1.5" stroke-linecap="round" stroke-linejoin="round"/>
<path d="M26 26.7305V37.7305" stroke="#131118" stroke-width="1.5" stroke-linecap="round" stroke-linejoin="round"/>
</svg>
