<svg width="14" height="14" viewBox="0 0 14 14" fill="none" xmlns="http://www.w3.org/2000/svg">
<path d="M8.20962 1.99633C8.64431 1.52537 8.86166 1.28988 9.09262 1.15252C9.64989 0.821094 10.3361 0.810787 10.9027 1.12534C11.1375 1.2557 11.3615 1.48455 11.8096 1.94226C12.2576 2.39997 12.4816 2.62882 12.6093 2.86869C12.9172 3.44747 12.9071 4.14845 12.5826 4.71773C12.4482 4.95366 12.2177 5.17569 11.7566 5.61974L6.27116 10.9032C5.39747 11.7447 4.96063 12.1654 4.41466 12.3787C3.8687 12.5919 3.26849 12.5762 2.06809 12.5448L1.90476 12.5406C1.53932 12.531 1.3566 12.5262 1.25038 12.4057C1.14417 12.2851 1.15867 12.099 1.18767 11.7268L1.20342 11.5246C1.28505 10.4769 1.32586 9.95302 1.53046 9.48211C1.73505 9.0112 2.08796 8.62884 2.79379 7.86411L8.20962 1.99633Z" stroke="#333333" stroke-width="1.6" stroke-linejoin="round"/>
<path d="M7.58325 2.0625L11.6666 6.14583" stroke="#333333" stroke-width="1.6" stroke-linejoin="round"/>
<path d="M8.16663 12.5625L12.8333 12.5625" stroke="#333333" stroke-width="1.6" stroke-linecap="round" stroke-linejoin="round"/>
</svg>
