<svg width="24" height="25" viewBox="0 0 24 25" fill="none" xmlns="http://www.w3.org/2000/svg">
<path d="M21 0.468262H3C1.3455 0.468262 0 1.81376 0 3.46826V16.9683C0 18.6228 1.3455 19.9683 3 19.9683H11.25V23.7183C11.25 23.8666 11.2939 24.0116 11.3763 24.1349C11.4586 24.2583 11.5757 24.3544 11.7127 24.4113C11.8498 24.468 12.0007 24.4828 12.1462 24.4539C12.2917 24.4249 12.4254 24.3534 12.5303 24.2485L16.8105 19.9683H21C22.6545 19.9683 24 18.6228 24 16.9683V3.46826C24 1.81376 22.6545 0.468262 21 0.468262ZM22.5 16.9683C22.5 17.7955 21.8272 18.4683 21 18.4683H16.5C16.4015 18.4681 16.3039 18.4874 16.2129 18.5252C16.1219 18.5629 16.0393 18.6182 15.9697 18.688L12.75 21.9078V19.2183C12.75 18.8043 12.4148 18.4683 12 18.4683H3C2.17275 18.4683 1.5 17.7955 1.5 16.9683V3.46826C1.5 2.64101 2.17275 1.96826 3 1.96826H21C21.8272 1.96826 22.5 2.64101 22.5 3.46826V16.9683Z" fill="#12B76A"/>
<path d="M10.9809 11.248H12.6221L13.5941 12.5082L14.2877 13.3288L15.9534 15.4683H14.1949L13.0617 14.0322L12.5782 13.3484L10.9809 11.248ZM16.1927 9.60681C16.1927 10.6847 15.9908 11.6078 15.587 12.3763C15.1865 13.1416 14.6394 13.7277 13.9458 14.1348C13.2555 14.5418 12.4723 14.7453 11.5964 14.7453C10.7204 14.7453 9.93561 14.5418 9.24201 14.1348C8.55166 13.7245 8.00459 13.1367 7.6008 12.3715C7.20027 11.603 7 10.6814 7 9.60681C7 8.52895 7.20027 7.6074 7.6008 6.84215C8.00459 6.07365 8.55166 5.48588 9.24201 5.07883C9.93561 4.67178 10.7204 4.46826 11.5964 4.46826C12.4723 4.46826 13.2555 4.67178 13.9458 5.07883C14.6394 5.48588 15.1865 6.07365 15.587 6.84215C15.9908 7.6074 16.1927 8.52895 16.1927 9.60681ZM14.3708 9.60681C14.3708 8.84807 14.2519 8.2082 14.0142 7.68718C13.7798 7.1629 13.4541 6.76726 13.0373 6.50023C12.6205 6.22996 12.1402 6.09482 11.5964 6.09482C11.0525 6.09482 10.5722 6.22996 10.1554 6.50023C9.7386 6.76726 9.41134 7.1629 9.17362 7.68718C8.93917 8.2082 8.82194 8.84807 8.82194 9.60681C8.82194 10.3655 8.93917 11.007 9.17362 11.5313C9.41134 12.0523 9.7386 12.448 10.1554 12.7183C10.5722 12.9853 11.0525 13.1188 11.5964 13.1188C12.1402 13.1188 12.6205 12.9853 13.0373 12.7183C13.4541 12.448 13.7798 12.0523 14.0142 11.5313C14.2519 11.007 14.3708 10.3655 14.3708 9.60681Z" fill="#12B76A"/>
</svg>
