<svg width="12" height="12" viewBox="0 0 12 12" fill="none" xmlns="http://www.w3.org/2000/svg">
<path d="M5.91211 11.3658L4.34673 9.8004H2.70451C2.09744 9.79913 1.51559 9.55741 1.08632 9.12814C0.657053 8.69887 0.415331 8.11702 0.414063 7.50995V2.92904C0.414061 2.32114 0.655223 1.73805 1.08463 1.30775C1.51403 0.877443 2.09661 0.635061 2.70451 0.633789H9.1197C9.72761 0.635061 10.3102 0.877443 10.7396 1.30775C11.169 1.73805 11.4102 2.32114 11.4102 2.92904V7.50995C11.4089 8.11702 11.1672 8.69887 10.7379 9.12814C10.3086 9.55741 9.72678 9.79913 9.1197 9.8004H7.47749L5.91211 11.3658ZM2.70451 1.55093C2.33941 1.5522 1.98961 1.6978 1.73144 1.95597C1.47327 2.21414 1.32767 2.56393 1.3264 2.92904V7.50995C1.32767 7.87506 1.47327 8.22485 1.73144 8.48302C1.98961 8.7412 2.33941 8.8868 2.70451 8.88806H4.72607L5.91211 10.0693L7.09815 8.88806H9.1197C9.48481 8.8868 9.83461 8.7412 10.0928 8.48302C10.351 8.22485 10.4966 7.87506 10.4978 7.50995V2.92904C10.4966 2.56393 10.351 2.21414 10.0928 1.95597C9.83461 1.6978 9.48481 1.5522 9.1197 1.55093H2.70451Z" fill="#5F646F"/>
<path d="M6.59625 7.50897H3.61914V6.59183H6.59625C6.75288 6.60198 6.90993 6.57989 7.05768 6.52693C7.20543 6.47397 7.34075 6.39126 7.45527 6.28392C7.56979 6.17658 7.66107 6.04689 7.72347 5.90287C7.78587 5.75885 7.81807 5.60356 7.81807 5.4466C7.81807 5.28965 7.78587 5.13436 7.72347 4.99034C7.66107 4.84632 7.56979 4.71663 7.45527 4.60929C7.34075 4.50195 7.20543 4.41924 7.05768 4.36628C6.90993 4.31332 6.75288 4.29123 6.59625 4.30138H4.53628V3.38424H6.59625C6.87546 3.37076 7.15449 3.41412 7.41644 3.51168C7.67839 3.60924 7.91781 3.75898 8.12018 3.95181C8.32254 4.14465 8.48365 4.37657 8.59372 4.63351C8.7038 4.89045 8.76056 5.16707 8.76056 5.4466C8.76056 5.72614 8.7038 6.00276 8.59372 6.2597C8.48365 6.51664 8.32254 6.74856 8.12018 6.9414C7.91781 7.13423 7.67839 7.28397 7.41644 7.38153C7.15449 7.47909 6.87546 7.52245 6.59625 7.50897Z" fill="#5F646F"/>
<path d="M5.5837 5.54135L3.88867 3.84152L5.5837 2.14648L6.23675 2.79473L5.18515 3.84152L6.23675 4.89311L5.5837 5.54135Z" fill="#5F646F"/>
</svg>
