<svg width="12" height="12" viewBox="0 0 12 12" fill="none" xmlns="http://www.w3.org/2000/svg">
<path d="M5.91309 11.3658L4.3477 9.8004H2.70549C2.09842 9.79913 1.51657 9.55741 1.0873 9.12814C0.65803 8.69887 0.416308 8.11702 0.415039 7.50995V2.92904C0.415038 2.32114 0.656199 1.73805 1.0856 1.30775C1.51501 0.877443 2.09758 0.635061 2.70549 0.633789H9.12068C9.72859 0.635061 10.3112 0.877443 10.7406 1.30775C11.17 1.73805 11.4111 2.32114 11.4111 2.92904V7.50995C11.4099 8.11702 11.1681 8.69887 10.7389 9.12814C10.3096 9.55741 9.72776 9.79913 9.12068 9.8004H7.47847L5.91309 11.3658ZM2.70549 1.55093C2.34038 1.5522 1.99059 1.6978 1.73242 1.95597C1.47424 2.21414 1.32864 2.56393 1.32738 2.92904V7.50995C1.32864 7.87506 1.47424 8.22485 1.73242 8.48302C1.99059 8.7412 2.34038 8.8868 2.70549 8.88806H4.72704L5.91309 10.0693L7.09913 8.88806H9.12068C9.48579 8.8868 9.83558 8.7412 10.0938 8.48302C10.3519 8.22485 10.4975 7.87506 10.4988 7.50995V2.92904C10.4975 2.56393 10.3519 2.21414 10.0938 1.95597C9.83558 1.6978 9.48579 1.5522 9.12068 1.55093H2.70549Z" fill="#5F646F"/>
<path d="M6.59723 7.50897H3.62012V6.59183H6.59723C6.75386 6.60198 6.9109 6.57989 7.05866 6.52693C7.20641 6.47397 7.34173 6.39126 7.45625 6.28392C7.57076 6.17658 7.66205 6.04689 7.72445 5.90287C7.78685 5.75885 7.81905 5.60356 7.81905 5.4466C7.81905 5.28965 7.78685 5.13436 7.72445 4.99034C7.66205 4.84632 7.57076 4.71663 7.45625 4.60929C7.34173 4.50195 7.20641 4.41924 7.05866 4.36628C6.9109 4.31332 6.75386 4.29123 6.59723 4.30138H4.53726V3.38424H6.59723C6.87643 3.37076 7.15547 3.41412 7.41742 3.51168C7.67937 3.60924 7.91879 3.75898 8.12115 3.95181C8.32352 4.14465 8.48462 4.37657 8.5947 4.63351C8.70478 4.89045 8.76154 5.16707 8.76154 5.4466C8.76154 5.72614 8.70478 6.00276 8.5947 6.2597C8.48462 6.51664 8.32352 6.74856 8.12115 6.9414C7.91879 7.13423 7.67937 7.28397 7.41742 7.38153C7.15547 7.47909 6.87643 7.52245 6.59723 7.50897Z" fill="#5F646F"/>
<path d="M5.58566 5.54135L3.89062 3.84152L5.58566 2.14648L6.2387 2.79473L5.18711 3.84152L6.2387 4.89311L5.58566 5.54135Z" fill="#5F646F"/>
</svg>
