<svg width="16" height="16" viewBox="0 0 16 16" fill="none" xmlns="http://www.w3.org/2000/svg">
<path d="M9.03658 2.86651L10.0925 4.99573C10.2364 5.29212 10.6204 5.57642 10.9444 5.63086L12.8582 5.95145C14.082 6.15712 14.37 7.05236 13.4881 7.9355L12.0003 9.43563C11.7483 9.68968 11.6103 10.1796 11.6883 10.5305L12.1142 12.3875C12.4502 13.8574 11.6763 14.426 10.3864 13.6578L8.59263 12.5871C8.26867 12.3935 7.73473 12.3935 7.40476 12.5871L5.61096 13.6578C4.3271 14.426 3.54719 13.8513 3.88315 12.3875L4.3091 10.5305C4.3871 10.1796 4.24911 9.68968 3.99714 9.43563L2.5093 7.9355C1.6334 7.05236 1.91537 6.15712 3.13923 5.95145L5.05302 5.63086C5.37099 5.57642 5.75494 5.29212 5.89893 4.99573L6.95481 2.86651C7.53075 1.71116 8.46665 1.71116 9.03658 2.86651Z" fill="#FFC900"/>
</svg>
