<svg width="11" height="11" viewBox="0 0 11 11" fill="none" xmlns="http://www.w3.org/2000/svg">
<path d="M10.5775 5.36147L8.46349 7.20647L9.09677 9.95334C9.13028 10.0969 9.12072 10.2472 9.06928 10.3854C9.01784 10.5236 8.9268 10.6436 8.80755 10.7303C8.6883 10.8171 8.54613 10.8667 8.39881 10.8731C8.25149 10.8795 8.10556 10.8423 7.97927 10.7662L5.58349 9.31303L3.19286 10.7662C3.06657 10.8423 2.92064 10.8795 2.77332 10.8731C2.626 10.8667 2.48383 10.8171 2.36458 10.7303C2.24533 10.6436 2.15429 10.5236 2.10285 10.3854C2.05141 10.2472 2.04185 10.0969 2.07536 9.95334L2.70771 7.20928L0.593174 5.36147C0.481335 5.26501 0.400463 5.13768 0.360701 4.99544C0.320938 4.85321 0.324056 4.7024 0.369661 4.56193C0.415267 4.42145 0.501331 4.29757 0.617061 4.20582C0.732791 4.11407 0.873035 4.05852 1.02021 4.04616L3.80739 3.80475L4.89536 1.20975C4.95218 1.07359 5.04801 0.957276 5.17079 0.875465C5.29358 0.793654 5.43782 0.75 5.58536 0.75C5.7329 0.75 5.87715 0.793654 5.99993 0.875465C6.12271 0.957276 6.21855 1.07359 6.27536 1.20975L7.36661 3.80475L10.1529 4.04616C10.3 4.05852 10.4403 4.11407 10.556 4.20582C10.6717 4.29757 10.7578 4.42145 10.8034 4.56193C10.849 4.7024 10.8521 4.85321 10.8124 4.99544C10.7726 5.13768 10.6917 5.26501 10.5799 5.36147H10.5775Z" fill="#5F646F"/>
</svg>
