<svg width="24" height="24" viewBox="0 0 24 24" fill="none" xmlns="http://www.w3.org/2000/svg">
<g clip-path="url(#clip0_8960_16343)">
<path d="M12 7.2002L13.1472 9.62398L15.6 10.0128L13.8 11.782L14.4 14.4002L12 12.9275L9.60002 14.4002L10.2 11.782L8.40002 10.0128L10.92 9.62398L12 7.2002Z" fill="#555555"/>
<path d="M13.1407 21.6L12 20.9231L14.6286 16.1846H18.5715C18.7442 16.1849 18.9152 16.1501 19.0748 16.0822C19.2344 16.0142 19.3794 15.9145 19.5015 15.7888C19.6236 15.663 19.7204 15.5136 19.7863 15.3492C19.8523 15.1848 19.8861 15.0086 19.8858 14.8308V6.70769C19.8861 6.52982 19.8523 6.35363 19.7863 6.18924C19.7204 6.02485 19.6236 5.87548 19.5015 5.7497C19.3794 5.62393 19.2344 5.52421 19.0748 5.45628C18.9152 5.38835 18.7442 5.35354 18.5715 5.35385H5.42862C5.25594 5.35354 5.08491 5.38835 4.92532 5.45628C4.76573 5.52421 4.62073 5.62393 4.49862 5.7497C4.37652 5.87548 4.27972 6.02485 4.21378 6.18924C4.14783 6.35363 4.11404 6.52982 4.11433 6.70769V14.8308C4.11404 15.0086 4.14783 15.1848 4.21378 15.3492C4.27972 15.5136 4.37652 15.663 4.49862 15.7888C4.62073 15.9145 4.76573 16.0142 4.92532 16.0822C5.08491 16.1501 5.25594 16.1849 5.42862 16.1846H11.3429V17.5385H5.42862C5.08341 17.5385 4.74158 17.4685 4.42264 17.3325C4.1037 17.1964 3.8139 16.997 3.56981 16.7455C3.32571 16.4941 3.13209 16.1956 3.00001 15.867C2.86794 15.5385 2.79999 15.1864 2.80005 14.8308V6.70769C2.79995 6.35208 2.86786 5.99994 2.99993 5.67138C3.13199 5.34282 3.3256 5.04428 3.56971 4.79283C3.81381 4.54137 4.10363 4.34193 4.42259 4.20589C4.74155 4.06986 5.0834 3.99989 5.42862 4H18.5715C18.9167 3.99989 19.2586 4.06986 19.5775 4.20589C19.8965 4.34193 20.1863 4.54137 20.4304 4.79283C20.6745 5.04428 20.8681 5.34282 21.0002 5.67138C21.1322 5.99994 21.2002 6.35208 21.2001 6.70769V14.8308C21.2001 15.1864 21.1322 15.5385 21.0001 15.867C20.868 16.1956 20.6744 16.4941 20.4303 16.7455C20.1862 16.997 19.8964 17.1964 19.5775 17.3325C19.2585 17.4685 18.9167 17.5385 18.5715 17.5385H15.3939L13.1407 21.6Z" fill="#555555"/>
</g>
<defs>
<clipPath id="clip0_8960_16343">
<rect width="24" height="24" fill="white"/>
</clipPath>
</defs>
</svg>
