<svg width="24" height="24" viewBox="0 0 24 24" fill="none" xmlns="http://www.w3.org/2000/svg">
<mask id="path-1-inside-1_8960_16402" fill="white">
<path fill-rule="evenodd" clip-rule="evenodd" d="M12.6193 2.32H11.3807L10.6712 5.1558L9.9595 5.3758C9.54478 5.50359 9.14298 5.67006 8.7594 5.873L8.1005 6.2217L5.5925 4.7169L4.7169 5.5936L6.2217 8.1016L5.873 8.7594C5.66968 9.14294 5.50285 9.54474 5.3747 9.9595L5.1558 10.6712L2.32 11.3807V12.6193L5.1558 13.3288L5.3758 14.0405C5.50267 14.457 5.6684 14.8571 5.873 15.2406L6.2217 15.8995L4.7169 18.4075L5.5936 19.2831L8.1016 17.7783L8.7594 18.127C9.14293 18.3309 9.54297 18.497 9.9595 18.6253L10.6712 18.8442L11.3807 21.68H12.6193L13.3288 18.8442L14.0405 18.6242C14.4552 18.4964 14.857 18.3299 15.2406 18.127L15.8995 17.7783L18.4075 19.2831L19.2831 18.4064L17.7783 15.8984L18.127 15.2406C18.3309 14.8571 18.497 14.457 18.6253 14.0405L18.8442 13.3288L21.68 12.6193V11.3807L18.8442 10.6712L18.6242 9.9595C18.4964 9.54478 18.3299 9.14298 18.127 8.7594L17.7783 8.1005L19.2831 5.5925L18.4064 4.7169L15.8984 6.2217L15.2406 5.873C14.8571 5.66968 14.4553 5.50285 14.0405 5.3747L13.3288 5.1558L12.6193 2.32ZM15.8588 4.707L17.8751 3.497C18.0853 3.3709 18.3317 3.31865 18.575 3.34854C18.8184 3.37843 19.0447 3.48876 19.2182 3.662L20.338 4.7818C20.5112 4.95527 20.6216 5.18164 20.6515 5.42498C20.6814 5.66831 20.6291 5.91466 20.503 6.1249L19.293 8.1412C19.535 8.59587 19.733 9.07253 19.887 9.5712L22.1673 10.1421C22.4052 10.2017 22.6163 10.3391 22.7672 10.5324C22.918 10.7257 23 10.9639 23 11.2091V12.7909C23 13.0361 22.918 13.2743 22.7672 13.4676C22.6163 13.6609 22.4052 13.7983 22.1673 13.8579L19.887 14.4288C19.733 14.9275 19.535 15.4041 19.293 15.8588L20.503 17.8751C20.6291 18.0853 20.6814 18.3317 20.6515 18.575C20.6216 18.8184 20.5112 19.0447 20.338 19.2182L19.2182 20.338C19.0447 20.5112 18.8184 20.6216 18.575 20.6515C18.3317 20.6814 18.0853 20.6291 17.8751 20.503L15.8588 19.293C15.4041 19.535 14.9275 19.733 14.4288 19.887L13.8579 22.1673C13.7983 22.4052 13.6609 22.6163 13.4676 22.7672C13.2743 22.918 13.0361 23 12.7909 23H11.2091C10.9639 23 10.7257 22.918 10.5324 22.7672C10.3391 22.6163 10.2017 22.4052 10.1421 22.1673L9.5712 19.887C9.07696 19.7343 8.59819 19.5354 8.1412 19.293L6.1249 20.503C5.91466 20.6291 5.66831 20.6814 5.42498 20.6515C5.18164 20.6216 4.95527 20.5112 4.7818 20.338L3.662 19.2182C3.48876 19.0447 3.37843 18.8184 3.34854 18.575C3.31865 18.3317 3.3709 18.0853 3.497 17.8751L4.707 15.8588C4.46461 15.4018 4.26573 14.923 4.113 14.4288L1.8327 13.8579C1.59501 13.7984 1.38401 13.6612 1.23316 13.4681C1.08231 13.275 1.00025 13.037 1 12.792V11.2102C1.00001 10.965 1.08195 10.7268 1.23282 10.5335C1.38369 10.3402 1.59483 10.2028 1.8327 10.1432L4.113 9.5723C4.267 9.07363 4.465 8.59697 4.707 8.1423L3.497 6.126C3.3709 5.91576 3.31865 5.66941 3.34854 5.42608C3.37843 5.18274 3.48876 4.95637 3.662 4.7829L4.7818 3.662C4.95527 3.48876 5.18164 3.37843 5.42498 3.34854C5.66831 3.31865 5.91466 3.3709 6.1249 3.497L8.1412 4.707C8.59587 4.465 9.07253 4.267 9.5712 4.113L10.1421 1.8327C10.2016 1.59501 10.3388 1.38401 10.5319 1.23316C10.725 1.08231 10.963 1.00025 11.208 1H12.7898C13.035 1.00001 13.2732 1.08195 13.4665 1.23282C13.6598 1.38369 13.7972 1.59483 13.8568 1.8327L14.4277 4.113C14.9264 4.267 15.403 4.465 15.8577 4.707H15.8588ZM12 15.08C12.8169 15.08 13.6003 14.7555 14.1779 14.1779C14.7555 13.6003 15.08 12.8169 15.08 12C15.08 11.1831 14.7555 10.3997 14.1779 9.82211C13.6003 9.2445 12.8169 8.92 12 8.92C11.1831 8.92 10.3997 9.2445 9.82211 9.82211C9.2445 10.3997 8.92 11.1831 8.92 12C8.92 12.8169 9.2445 13.6003 9.82211 14.1779C10.3997 14.7555 11.1831 15.08 12 15.08ZM12 16.4C10.833 16.4 9.71389 15.9364 8.88873 15.1113C8.06357 14.2861 7.6 13.167 7.6 12C7.6 10.833 8.06357 9.71389 8.88873 8.88873C9.71389 8.06357 10.833 7.6 12 7.6C13.167 7.6 14.2861 8.06357 15.1113 8.88873C15.9364 9.71389 16.4 10.833 16.4 12C16.4 13.167 15.9364 14.2861 15.1113 15.1113C14.2861 15.9364 13.167 16.4 12 16.4Z"/>
</mask>
<path fill-rule="evenodd" clip-rule="evenodd" d="M12.6193 2.32H11.3807L10.6712 5.1558L9.9595 5.3758C9.54478 5.50359 9.14298 5.67006 8.7594 5.873L8.1005 6.2217L5.5925 4.7169L4.7169 5.5936L6.2217 8.1016L5.873 8.7594C5.66968 9.14294 5.50285 9.54474 5.3747 9.9595L5.1558 10.6712L2.32 11.3807V12.6193L5.1558 13.3288L5.3758 14.0405C5.50267 14.457 5.6684 14.8571 5.873 15.2406L6.2217 15.8995L4.7169 18.4075L5.5936 19.2831L8.1016 17.7783L8.7594 18.127C9.14293 18.3309 9.54297 18.497 9.9595 18.6253L10.6712 18.8442L11.3807 21.68H12.6193L13.3288 18.8442L14.0405 18.6242C14.4552 18.4964 14.857 18.3299 15.2406 18.127L15.8995 17.7783L18.4075 19.2831L19.2831 18.4064L17.7783 15.8984L18.127 15.2406C18.3309 14.8571 18.497 14.457 18.6253 14.0405L18.8442 13.3288L21.68 12.6193V11.3807L18.8442 10.6712L18.6242 9.9595C18.4964 9.54478 18.3299 9.14298 18.127 8.7594L17.7783 8.1005L19.2831 5.5925L18.4064 4.7169L15.8984 6.2217L15.2406 5.873C14.8571 5.66968 14.4553 5.50285 14.0405 5.3747L13.3288 5.1558L12.6193 2.32ZM15.8588 4.707L17.8751 3.497C18.0853 3.3709 18.3317 3.31865 18.575 3.34854C18.8184 3.37843 19.0447 3.48876 19.2182 3.662L20.338 4.7818C20.5112 4.95527 20.6216 5.18164 20.6515 5.42498C20.6814 5.66831 20.6291 5.91466 20.503 6.1249L19.293 8.1412C19.535 8.59587 19.733 9.07253 19.887 9.5712L22.1673 10.1421C22.4052 10.2017 22.6163 10.3391 22.7672 10.5324C22.918 10.7257 23 10.9639 23 11.2091V12.7909C23 13.0361 22.918 13.2743 22.7672 13.4676C22.6163 13.6609 22.4052 13.7983 22.1673 13.8579L19.887 14.4288C19.733 14.9275 19.535 15.4041 19.293 15.8588L20.503 17.8751C20.6291 18.0853 20.6814 18.3317 20.6515 18.575C20.6216 18.8184 20.5112 19.0447 20.338 19.2182L19.2182 20.338C19.0447 20.5112 18.8184 20.6216 18.575 20.6515C18.3317 20.6814 18.0853 20.6291 17.8751 20.503L15.8588 19.293C15.4041 19.535 14.9275 19.733 14.4288 19.887L13.8579 22.1673C13.7983 22.4052 13.6609 22.6163 13.4676 22.7672C13.2743 22.918 13.0361 23 12.7909 23H11.2091C10.9639 23 10.7257 22.918 10.5324 22.7672C10.3391 22.6163 10.2017 22.4052 10.1421 22.1673L9.5712 19.887C9.07696 19.7343 8.59819 19.5354 8.1412 19.293L6.1249 20.503C5.91466 20.6291 5.66831 20.6814 5.42498 20.6515C5.18164 20.6216 4.95527 20.5112 4.7818 20.338L3.662 19.2182C3.48876 19.0447 3.37843 18.8184 3.34854 18.575C3.31865 18.3317 3.3709 18.0853 3.497 17.8751L4.707 15.8588C4.46461 15.4018 4.26573 14.923 4.113 14.4288L1.8327 13.8579C1.59501 13.7984 1.38401 13.6612 1.23316 13.4681C1.08231 13.275 1.00025 13.037 1 12.792V11.2102C1.00001 10.965 1.08195 10.7268 1.23282 10.5335C1.38369 10.3402 1.59483 10.2028 1.8327 10.1432L4.113 9.5723C4.267 9.07363 4.465 8.59697 4.707 8.1423L3.497 6.126C3.3709 5.91576 3.31865 5.66941 3.34854 5.42608C3.37843 5.18274 3.48876 4.95637 3.662 4.7829L4.7818 3.662C4.95527 3.48876 5.18164 3.37843 5.42498 3.34854C5.66831 3.31865 5.91466 3.3709 6.1249 3.497L8.1412 4.707C8.59587 4.465 9.07253 4.267 9.5712 4.113L10.1421 1.8327C10.2016 1.59501 10.3388 1.38401 10.5319 1.23316C10.725 1.08231 10.963 1.00025 11.208 1H12.7898C13.035 1.00001 13.2732 1.08195 13.4665 1.23282C13.6598 1.38369 13.7972 1.59483 13.8568 1.8327L14.4277 4.113C14.9264 4.267 15.403 4.465 15.8577 4.707H15.8588ZM12 15.08C12.8169 15.08 13.6003 14.7555 14.1779 14.1779C14.7555 13.6003 15.08 12.8169 15.08 12C15.08 11.1831 14.7555 10.3997 14.1779 9.82211C13.6003 9.2445 12.8169 8.92 12 8.92C11.1831 8.92 10.3997 9.2445 9.82211 9.82211C9.2445 10.3997 8.92 11.1831 8.92 12C8.92 12.8169 9.2445 13.6003 9.82211 14.1779C10.3997 14.7555 11.1831 15.08 12 15.08ZM12 16.4C10.833 16.4 9.71389 15.9364 8.88873 15.1113C8.06357 14.2861 7.6 13.167 7.6 12C7.6 10.833 8.06357 9.71389 8.88873 8.88873C9.71389 8.06357 10.833 7.6 12 7.6C13.167 7.6 14.2861 8.06357 15.1113 8.88873C15.9364 9.71389 16.4 10.833 16.4 12C16.4 13.167 15.9364 14.2861 15.1113 15.1113C14.2861 15.9364 13.167 16.4 12 16.4Z" fill="#666666" stroke="#666666" stroke-width="4" mask="url(#path-1-inside-1_8960_16402)"/>
</svg>
