<svg width="28" height="25" viewBox="0 0 28 25" fill="none" xmlns="http://www.w3.org/2000/svg">
<path d="M14.1064 11.0208L14.1065 11.0206L14.1018 11.0171C13.7224 10.7356 13.1842 10.7668 12.8402 11.1109L9.28461 14.6664L9.28446 14.6663L9.28062 14.6707L9.19456 14.7704L9.19439 14.7703L9.19087 14.775C8.90939 15.1544 8.94058 15.6926 9.28461 16.0366L9.28446 16.0368L9.2889 16.0406L9.3886 16.1267L9.38846 16.1269L9.39321 16.1304C9.77257 16.4119 10.3108 16.3807 10.6548 16.0366L10.6548 16.0366L12.5564 14.1343V23.0552H12.5562L12.5566 23.0606L12.5647 23.1812L12.5645 23.1812L12.5652 23.1866C12.6294 23.6596 13.0347 24.0241 13.5253 24.0241C14.0604 24.0241 14.4942 23.5903 14.4942 23.0552V14.1343L16.3957 16.0366L16.3956 16.0368L16.4 16.0406L16.4997 16.1267L16.4996 16.1269L16.5043 16.1304C16.8837 16.4119 17.4219 16.3807 17.7659 16.0366C18.1443 15.6583 18.1443 15.0448 17.7659 14.6664L14.2104 11.1109L14.2105 11.1107L14.2061 11.1069L14.1064 11.0208ZM12.712 0.752997L12.7107 0.753018L12.4208 0.757739L12.4195 0.757782C7.95146 0.903814 4.33212 4.38232 4.03823 8.76456L4.03822 8.76456L4.03816 8.76571L4.02683 8.98088L3.92329 9.0314L3.92329 9.0314L3.92234 9.03188C1.91016 10.0473 0.586016 12.1079 0.586016 14.4203C0.586016 17.7643 3.32891 20.4686 6.70433 20.4686H7.59935V20.4687L7.60472 20.4684L7.72534 20.4603L7.72535 20.4604L7.73072 20.4597C8.20371 20.3956 8.56824 19.9902 8.56824 19.4997C8.56824 18.9646 8.13445 18.5308 7.59935 18.5308H6.70534H6.70433L6.48193 18.5251C6.4816 18.5251 6.48127 18.525 6.48095 18.525C4.27249 18.4108 2.52379 16.6131 2.52379 14.4203C2.52379 12.6663 3.6524 11.1196 5.31126 10.5433L5.93313 10.3273L5.9891 10.3078L5.98682 10.2486L5.96152 9.59158L5.95674 9.34094C5.95674 9.34069 5.95674 9.34043 5.95674 9.34018C5.95716 5.67162 8.9776 2.69079 12.712 2.69079C16.3721 2.69079 19.3587 5.55894 19.4643 9.14395C19.4643 9.14421 19.4644 9.14447 19.4644 9.14473L19.4774 10.4636L19.4783 10.5574L19.5707 10.5417L20.5966 10.3678L20.8271 10.3354C20.9803 10.3184 21.1363 10.3098 21.2944 10.3098C23.6067 10.3098 25.4743 12.1535 25.4749 14.4192C25.4749 14.4196 25.4749 14.4199 25.4749 14.4203L25.4692 14.6367C25.4692 14.637 25.4692 14.6374 25.4692 14.6377C25.3705 16.5027 24.0111 18.1042 22.2062 18.503C22.2059 18.5031 22.2056 18.5032 22.2052 18.5032L22.0617 18.5308H19.4512V18.5306L19.4458 18.531L19.3252 18.5391L19.3252 18.5389L19.3198 18.5396C18.8468 18.6038 18.4823 19.0091 18.4823 19.4997C18.4823 20.0348 18.9161 20.4686 19.4512 20.4686H22.1533V20.4688L22.1599 20.4683L22.3051 20.4563L22.3051 20.4568L22.3134 20.4552L22.5729 20.4063L22.5729 20.4063L22.5746 20.4059C25.3574 19.8162 27.4127 17.3079 27.4127 14.4203L27.4127 14.4186L27.4071 14.1595L27.407 14.1578C27.2686 10.9531 24.6097 8.39953 21.3471 8.37228L21.3334 8.24575L21.3335 8.24575L21.3332 8.24402C20.7804 4.00091 17.1202 0.753008 12.712 0.752997Z" fill="#FE681E" stroke="#FE681E" stroke-width="0.16"/>
</svg>
