<svg width="24" height="25" viewBox="0 0 24 25" fill="none" xmlns="http://www.w3.org/2000/svg">
<path fill-rule="evenodd" clip-rule="evenodd" d="M19.7132 4.87318V20.5878C19.7132 21.4342 19.2147 22.2013 18.4412 22.5455C17.6676 22.8898 16.7634 22.7455 16.1349 22.1784L12.3351 18.7501C12.063 18.5051 11.6502 18.5051 11.3781 18.7501L7.57832 22.1784C6.9498 22.7455 6.04557 22.8898 5.27205 22.5455C4.49854 22.2013 4 21.4342 4 20.5878V4.87318C4 4.30465 4.2257 3.75968 4.62782 3.35828C5.02922 2.95617 5.57418 2.73047 6.14271 2.73047H17.5705C18.139 2.73047 18.684 2.95617 19.0854 3.35828C19.4875 3.75968 19.7132 4.30465 19.7132 4.87318ZM18.2847 4.87318C18.2847 4.68391 18.2097 4.50178 18.0755 4.36821C17.9419 4.23394 17.7598 4.15894 17.5705 4.15894H6.14271C5.95344 4.15894 5.77131 4.23394 5.63774 4.36821C5.50347 4.50178 5.42847 4.68391 5.42847 4.87318V20.5878C5.42847 20.8699 5.59489 21.1256 5.85273 21.2406C6.11057 21.3549 6.41198 21.307 6.62125 21.1178L10.421 17.6894C11.2366 16.9538 12.4766 16.9538 13.2922 17.6894L17.092 21.1178C17.3012 21.307 17.6026 21.3549 17.8605 21.2406C18.1183 21.1256 18.2847 20.8699 18.2847 20.5878V4.87318ZM11.8566 7.21873C13.1001 6.10023 14.9278 6.24522 15.9142 7.04231C17.0462 7.95653 17.2055 9.7807 16.0785 11.6099C15.3899 12.7912 13.6579 13.999 12.1952 14.7868C11.9837 14.9011 11.7295 14.9011 11.5181 14.7868C10.0553 13.999 8.32327 12.7912 7.63475 11.6099C6.50769 9.7807 6.66767 7.95653 7.79902 7.04231C8.78539 6.24522 10.6131 6.10023 11.8566 7.21873ZM11.2495 8.70292C10.6095 7.6687 9.33678 7.63655 8.69682 8.15366C8.4097 8.38507 8.28542 8.74077 8.28542 9.14646C8.28542 9.67142 8.48398 10.2671 8.85538 10.8663C8.85895 10.8728 8.86252 10.8792 8.86609 10.8849C9.3932 11.7977 10.6917 12.6869 11.8566 13.3426C13.0208 12.6869 14.32 11.7977 14.8471 10.8849C14.8507 10.8792 14.8543 10.8728 14.8578 10.8663C15.2292 10.2671 15.4278 9.67142 15.4278 9.14646C15.4278 8.74077 15.3035 8.38507 15.0164 8.15366C14.3764 7.63655 13.1037 7.6687 12.4637 8.70292C12.3337 8.9129 12.1037 9.04074 11.8566 9.04074C11.6095 9.04074 11.3795 8.9129 11.2495 8.70292Z" fill="white"/>
</svg>
