<svg width="126" height="36" viewBox="0 0 126 36" fill="none" xmlns="http://www.w3.org/2000/svg">
<path d="M41.2449 22.9426C41.3624 22.8601 41.4724 22.8076 41.5774 22.7851C41.6824 22.7651 41.7624 22.7526 41.8224 22.7526C41.9649 22.7526 42.0924 22.7826 42.2099 22.8401C42.3274 22.8976 42.4474 23.0251 42.5724 23.2151L43.9749 25.3326C44.0174 25.4001 44.0574 25.4751 44.0949 25.5576C44.1324 25.6401 44.1524 25.7076 44.1524 25.7576C44.1524 25.9501 44.0924 26.1076 43.9699 26.2276C43.8474 26.3476 43.7174 26.4551 43.5749 26.5476C42.8899 27.0226 42.1399 27.4051 41.3274 27.6926C40.5124 27.9801 39.6524 28.1251 38.7424 28.1251C37.9899 28.1251 37.2674 28.0301 36.5699 27.8376C35.8724 27.6451 35.2224 27.3726 34.6224 27.0176C34.0224 26.6626 33.4699 26.2376 32.9699 25.7401C32.4699 25.2426 32.0424 24.6901 31.6924 24.0801C31.3424 23.4701 31.0674 22.8126 30.8724 22.1076C30.6774 21.4026 30.5774 20.6651 30.5774 19.8976C30.5774 19.1301 30.6749 18.3901 30.8724 17.6801C31.0674 16.9701 31.3424 16.3126 31.6924 15.7076C32.0424 15.1026 32.4699 14.5526 32.9699 14.0551C33.4699 13.5576 34.0224 13.1351 34.6224 12.7851C35.2224 12.4351 35.8724 12.1626 36.5699 11.9701C37.2674 11.7776 37.9899 11.6826 38.7424 11.6826C39.6524 11.6826 40.4924 11.8026 41.2649 12.0451C42.0374 12.2876 42.7624 12.6451 43.4374 13.1226L43.3999 13.0851C43.5824 13.1926 43.7299 13.3201 43.8374 13.4676C43.9449 13.6126 43.9999 13.7951 43.9999 14.0126C43.9999 14.1626 43.9499 14.3176 43.8499 14.4751L42.7349 16.3651C42.4999 16.7751 42.2174 16.9801 41.8824 16.9801C41.8074 16.9801 41.7149 16.9601 41.6074 16.9226C41.4999 16.8851 41.3774 16.8201 41.2449 16.7276C40.8774 16.4851 40.4824 16.2876 40.0624 16.1326C39.6399 15.9776 39.1924 15.9001 38.7174 15.9001C38.1924 15.9001 37.7074 16.0076 37.2649 16.2201C36.8224 16.4326 36.4449 16.7226 36.1324 17.0901C35.8199 17.4576 35.5749 17.8826 35.3999 18.3676C35.2249 18.8526 35.1374 19.3601 35.1374 19.8951C35.1374 20.4301 35.2249 20.9626 35.3999 21.4426C35.5749 21.9226 35.8199 22.3376 36.1324 22.6876C36.4449 23.0376 36.8224 23.3151 37.2649 23.5201C37.7074 23.7251 38.1924 23.8276 38.7174 23.8276C39.1924 23.8276 39.6399 23.7451 40.0574 23.5776C40.4749 23.4101 40.8724 23.1976 41.2474 22.9401L41.2449 22.9426Z" fill="#00ACD4"/>
<path d="M62.8974 26.9126C62.8974 27.0551 62.8724 27.1901 62.8224 27.3201C62.7724 27.4501 62.6899 27.5526 62.5724 27.6276C62.4799 27.7201 62.3724 27.7776 62.2474 27.8026C62.1224 27.8276 62.0124 27.8401 61.9224 27.8401H59.4549C59.2799 27.8401 59.1374 27.8176 59.0299 27.7701C58.9224 27.7251 58.8349 27.6601 58.7674 27.5751C58.6999 27.4926 58.6449 27.3901 58.5974 27.2676C58.5524 27.1476 58.5024 27.0151 58.4524 26.8726L58.2899 26.3101C58.0649 26.5351 57.8074 26.7576 57.5199 26.9726C57.2324 27.1901 56.9149 27.3851 56.5674 27.5551C56.2199 27.7251 55.8499 27.8626 55.4524 27.9676C55.0549 28.0726 54.6449 28.1251 54.2199 28.1251C53.4599 28.1251 52.7324 28.0301 52.0349 27.8376C51.3374 27.6451 50.6874 27.3726 50.0824 27.0176C49.4774 26.6626 48.9274 26.2376 48.4349 25.7401C47.9424 25.2426 47.5199 24.6901 47.1649 24.0801C46.8099 23.4701 46.5374 22.8126 46.3449 22.1076C46.1524 21.4026 46.0574 20.6651 46.0574 19.8976C46.0574 18.7376 46.2699 17.6576 46.6974 16.6601C47.1224 15.6626 47.7024 14.7951 48.4374 14.0551C49.1724 13.3151 50.0349 12.7351 51.0299 12.3151C52.0224 11.8926 53.0874 11.6826 54.2224 11.6826C54.7399 11.6826 55.2224 11.7401 55.6699 11.8576C56.1174 11.9751 56.5249 12.1326 56.8974 12.3326C57.2699 12.5326 57.6049 12.7726 57.9049 13.0526C58.2049 13.3326 58.4674 13.6351 58.6949 13.9601L59.0574 12.8201C59.1399 12.6126 59.2099 12.4426 59.2649 12.3126C59.3199 12.1826 59.3774 12.0876 59.4399 12.0251C59.5024 11.9626 59.5799 11.9201 59.6724 11.9001C59.7649 11.8801 59.8924 11.8676 60.0599 11.8676H61.9249C62.0174 11.8676 62.1249 11.8801 62.2499 11.9051C62.3749 11.9301 62.4824 11.9876 62.5749 12.0801C62.6924 12.1726 62.7749 12.2751 62.8249 12.3926C62.8749 12.5101 62.8999 12.6426 62.8999 12.7926V26.9051L62.8974 26.9126ZM50.5624 19.9001C50.5624 20.4501 50.6474 20.9676 50.8199 21.4476C50.9899 21.9276 51.2349 22.3426 51.5524 22.6926C51.8699 23.0426 52.2524 23.3201 52.6974 23.5251C53.1449 23.7301 53.6374 23.8326 54.1824 23.8326C54.7274 23.8326 55.2624 23.7301 55.7424 23.5251C56.2224 23.3201 56.6399 23.0426 56.9949 22.6926C57.3499 22.3426 57.6274 21.9276 57.8274 21.4476C58.0274 20.9676 58.1274 20.4526 58.1274 19.9001C58.1274 19.3476 58.0274 18.8576 57.8274 18.3726C57.6274 17.8876 57.3499 17.4626 56.9949 17.0951C56.6399 16.7276 56.2224 16.4376 55.7424 16.2251C55.2624 16.0126 54.7424 15.9051 54.1824 15.9051C53.6224 15.9051 53.1449 16.0126 52.6974 16.2251C52.2499 16.4376 51.8699 16.7276 51.5524 17.0951C51.2349 17.4626 50.9899 17.8876 50.8199 18.3726C50.6499 18.8576 50.5624 19.3651 50.5624 19.9001Z" fill="#00ACD4"/>
<path d="M65.9024 12.8627C65.9024 12.7052 65.9324 12.5652 65.9899 12.4502C66.0474 12.3327 66.1249 12.2377 66.2224 12.1627C66.3174 12.0877 66.4274 12.0302 66.5474 11.9927C66.6674 11.9552 66.7874 11.9352 66.9049 11.9352H68.7949C69.0024 11.9352 69.1699 11.9977 69.2949 12.1227C69.4199 12.2477 69.5274 12.4077 69.6149 12.5977C69.7024 12.7902 69.7799 13.0027 69.8474 13.2352C69.9149 13.4702 69.9924 13.6952 70.0849 13.9102C70.3349 13.6352 70.5824 13.3627 70.8299 13.0952C71.0749 12.8277 71.3399 12.5902 71.6249 12.3827C71.9074 12.1752 72.2199 12.0052 72.5574 11.8752C72.8949 11.7452 73.2824 11.6802 73.7149 11.6802C74.1474 11.6802 74.5674 11.7127 74.9224 11.7802C75.2774 11.8477 75.6124 11.9452 75.9299 12.0752C76.2474 12.2052 76.5624 12.3702 76.8749 12.5702C77.1874 12.7702 77.5274 13.0052 77.8949 13.2702C78.2549 13.4802 78.4324 13.7252 78.4324 14.0102C78.4324 14.1927 78.3624 14.4077 78.2199 14.6477L77.0799 16.5877C76.8549 16.9127 76.5749 17.0752 76.2399 17.0752C76.0724 17.0752 75.8849 17.0302 75.6774 16.9377C75.3174 16.5877 74.9524 16.3252 74.5824 16.1552C74.2099 15.9852 73.7874 15.8977 73.3124 15.8977C72.9874 15.8977 72.6999 15.9427 72.4549 16.0352C72.2099 16.1277 71.9849 16.2577 71.7849 16.4227C71.5849 16.5902 71.3974 16.7902 71.2224 17.0227C71.0474 17.2577 70.8724 17.5152 70.6974 17.8002V26.8677C70.6974 27.1852 70.6199 27.4252 70.4649 27.5877C70.3099 27.7502 70.0524 27.8327 69.6949 27.8327H66.8774C66.2274 27.8327 65.8999 27.5127 65.8999 26.8677V12.8552L65.9024 12.8627Z" fill="#00ACD4"/>
<path d="M81.28 9.455C81.28 9.1975 81.365 9.0025 81.5375 8.8725C81.7075 8.7425 81.9525 8.62 82.27 8.5025L85.1125 7.5125C85.155 7.505 85.1925 7.5 85.23 7.5H85.3375C85.645 7.5 85.8525 7.59 85.9575 7.77C86.0625 7.95 86.115 8.185 86.115 8.4775L86.1025 11.9225H87.8175C88.085 11.9225 88.3025 12.0025 88.4675 12.16C88.635 12.3175 88.7175 12.5575 88.7175 12.875V15.2925C88.7175 15.6425 88.6325 15.9 88.4675 16.0625C88.3 16.225 88.0825 16.3075 87.8175 16.3075H86.1025L86.115 26.8775C86.115 27.195 86.0225 27.435 85.84 27.5975C85.655 27.76 85.4025 27.8425 85.075 27.8425H82.245C81.6025 27.8425 81.28 27.5225 81.28 26.8775L81.2675 16.3075H79.9775C79.335 16.3075 79.0125 15.97 79.0125 15.2925V12.875C79.0125 12.24 79.3325 11.9225 79.9775 11.9225H81.2675L81.28 9.455Z" fill="#00ACD4"/>
<path d="M105.837 27.6276C105.73 27.7201 105.615 27.7776 105.492 27.8026C105.37 27.8276 105.257 27.8401 105.147 27.8401H103.257C103.107 27.8401 102.977 27.8126 102.87 27.7576C102.762 27.7026 102.67 27.6301 102.595 27.5401C102.52 27.4476 102.457 27.3451 102.407 27.2276C102.357 27.1101 102.315 26.9901 102.282 26.8651L102.02 25.6401C101.895 25.8976 101.685 26.1701 101.395 26.4576C101.102 26.7451 100.742 27.0101 100.312 27.2501C99.8824 27.4926 99.3874 27.6926 98.8274 27.8501C98.2674 28.0076 97.6574 28.0876 96.9999 28.0876C96.0474 28.0876 95.2049 27.9051 94.4699 27.5376C93.7349 27.1701 93.1149 26.6701 92.6099 26.0351C92.1049 25.4001 91.7224 24.6601 91.4649 23.8126C91.2074 22.9651 91.0774 22.0626 91.0774 21.1026V12.9001C91.0774 12.5826 91.1449 12.3426 91.2849 12.1801C91.4224 12.0176 91.6424 11.9351 91.9424 11.9351H94.8349C95.1949 11.9351 95.4399 11.9951 95.5749 12.1176C95.7074 12.2401 95.7749 12.4751 95.7749 12.8251V20.9851C95.7749 21.3451 95.8449 21.6851 95.9824 22.0076C96.1199 22.3301 96.3049 22.6126 96.5399 22.8601C96.7724 23.1076 97.0474 23.3001 97.3599 23.4426C97.6724 23.5851 98.0049 23.6551 98.3549 23.6551C98.6549 23.6551 98.9799 23.6051 99.3324 23.5051C99.6824 23.4051 100.01 23.2476 100.31 23.0351C100.61 22.8226 100.86 22.5476 101.062 22.2151C101.262 21.8801 101.362 21.4801 101.362 21.0126V12.8651C101.362 12.7226 101.39 12.5801 101.442 12.4401C101.497 12.2976 101.577 12.1901 101.687 12.1151C101.795 12.0476 101.897 12.0026 101.995 11.9776C102.092 11.9526 102.202 11.9401 102.327 11.9401H105.157C105.517 11.9401 105.775 12.0276 105.935 12.2026C106.092 12.3776 106.172 12.6126 106.172 12.9051V26.9201C106.172 27.0776 106.137 27.2251 106.065 27.3576C105.992 27.4901 105.895 27.5951 105.77 27.6701L105.845 27.6326L105.837 27.6276Z" fill="#00ACD4"/>
<path d="M109.492 12.0851C109.6 11.9926 109.712 11.9351 109.83 11.9101C109.947 11.8851 110.06 11.8726 110.167 11.8726H112.057C112.215 11.8726 112.347 11.8976 112.452 11.9476C112.557 11.9976 112.642 12.0676 112.71 12.1551C112.777 12.2426 112.832 12.3426 112.88 12.4551C112.925 12.5676 112.97 12.6901 113.012 12.8251L113.537 14.3401C113.77 14.0401 114.007 13.7326 114.245 13.4201C114.482 13.1076 114.765 12.8226 115.09 12.5676C115.415 12.3126 115.805 12.1026 116.255 11.9351C116.705 11.7676 117.257 11.6851 117.907 11.6851C119.052 11.6851 120.105 11.8951 121.07 12.3176C122.035 12.7401 122.865 13.3201 123.562 14.0576C124.26 14.7976 124.805 15.6651 125.197 16.6626C125.59 17.6601 125.785 18.7401 125.785 19.9001C125.785 21.0601 125.59 22.1301 125.197 23.1301C124.805 24.1301 124.26 25.0026 123.562 25.7401C122.865 26.4801 122.035 27.0601 121.07 27.4876C120.105 27.9151 119.052 28.1251 117.907 28.1251C117.365 28.1251 116.897 28.0601 116.505 27.9301C116.112 27.8001 115.765 27.6326 115.46 27.4226C115.155 27.2151 114.885 26.9851 114.652 26.7351C114.417 26.4851 114.19 26.2351 113.965 25.9826V31.8176C113.965 32.0676 113.89 32.2801 113.74 32.4551C113.59 32.6301 113.355 32.7176 113.04 32.7176H110.172C110.072 32.7176 109.965 32.6976 109.847 32.6551C109.73 32.6126 109.622 32.5551 109.522 32.4801C109.422 32.4051 109.34 32.3101 109.272 32.1976C109.205 32.0851 109.172 31.9576 109.172 31.8151V12.8001C109.172 12.6326 109.202 12.4951 109.265 12.3876C109.327 12.2801 109.405 12.1801 109.497 12.0876L109.492 12.0851ZM121.19 19.9001C121.19 19.3651 121.102 18.8601 120.927 18.3776C120.752 17.8976 120.505 17.4776 120.187 17.1201C119.87 16.7601 119.49 16.4776 119.047 16.2676C118.605 16.0601 118.117 15.9551 117.582 15.9551C117.047 15.9551 116.557 16.0526 116.085 16.2501C115.612 16.4451 115.2 16.7126 114.845 17.0526C114.49 17.3901 114.202 17.7901 113.98 18.2476C113.76 18.7076 113.635 19.1951 113.61 19.7126V19.9001C113.61 20.4501 113.715 20.9701 113.922 21.4526C114.13 21.9376 114.415 22.3551 114.775 22.7101C115.135 23.0651 115.555 23.3476 116.04 23.5551C116.525 23.7626 117.037 23.8676 117.58 23.8676C118.122 23.8676 118.602 23.7626 119.045 23.5551C119.487 23.3476 119.867 23.0651 120.185 22.7101C120.502 22.3551 120.747 21.9351 120.925 21.4526C121.1 20.9676 121.187 20.4501 121.187 19.9001H121.19Z" fill="#00ACD4"/>
<path d="M19.7249 9.20519C19.6899 9.20519 19.6524 9.20519 19.6149 9.20019C19.0224 9.14019 18.5874 8.61019 18.6474 8.01769C18.6649 7.82769 19.0599 3.29769 15.6974 2.91019C14.3074 2.75019 13.2674 3.36019 12.5224 4.77269C11.9074 5.93769 11.7499 7.19769 11.7499 7.21019C11.6824 7.80269 11.1499 8.22769 10.5549 8.16019C9.96245 8.09269 9.53745 7.55769 9.60495 6.96519C9.61245 6.89769 9.80245 5.30519 10.6124 3.76769C11.7699 1.56769 13.6624 0.502692 15.9449 0.765192C20.3274 1.26769 21.0374 5.87019 20.7999 8.23519C20.7449 8.79269 20.2749 9.20769 19.7274 9.20769L19.7249 9.20519Z" fill="#EC008C"/>
<path d="M23.1825 29.8952C23.115 29.8952 23.05 29.8902 22.9825 29.8827L7.26247 27.9577C6.80747 27.9027 6.39747 27.6577 6.12997 27.2877C5.86247 26.9152 5.76247 26.4502 5.85247 26.0002L8.65497 12.2152C8.83497 11.3252 9.70247 10.7502 10.5925 10.9327C11.4825 11.1127 12.055 11.9802 11.875 12.8702L9.42747 24.9127L21.6475 26.4102L22.215 16.9752C22.27 16.0702 23.05 15.3802 23.955 15.4327C24.86 15.4877 25.55 16.2652 25.4975 17.1727L24.825 28.3502C24.7975 28.8027 24.585 29.2252 24.2375 29.5152C23.94 29.7627 23.5675 29.8952 23.185 29.8952H23.1825Z" fill="#EC008C"/>
<path d="M22.8475 35.2752C22.7775 35.2752 22.7075 35.2702 22.6375 35.2627L4.48755 32.9452C1.72255 32.6277 -0.284953 30.0977 0.0325469 27.3102C0.0375469 27.2652 0.0450469 27.2202 0.0525469 27.1777L3.53505 9.67517C3.70505 8.35517 4.37255 7.17267 5.41755 6.34267C6.48255 5.49767 7.81255 5.11767 9.16255 5.27267L21.1225 6.77767C22.455 6.93017 23.665 7.60267 24.51 8.66517C25.355 9.73017 25.735 11.0602 25.58 12.4102C25.4775 13.3127 24.66 13.9602 23.76 13.8552C22.8575 13.7527 22.21 12.9377 22.315 12.0352C22.37 11.5577 22.235 11.0852 21.935 10.7077C21.635 10.3302 21.2075 10.0927 20.73 10.0377L8.77005 8.53267C7.80005 8.42017 6.90505 9.13267 6.79255 10.1202C6.78755 10.1652 6.78005 10.2102 6.77255 10.2527L3.29505 27.7377C3.21505 28.7027 3.91755 29.5677 4.88505 29.6777L23.055 31.9977C23.955 32.1127 24.5925 32.9352 24.4775 33.8352C24.3725 34.6652 23.665 35.2702 22.85 35.2702L22.8475 35.2752Z" fill="#EC008C"/>
</svg>
