<svg width="136" height="136" viewBox="0 0 136 136" fill="none" xmlns="http://www.w3.org/2000/svg">
<path d="M90.5188 66.1922C89.7491 65.9039 89.0377 65.4489 88.4252 64.8531C87.8127 64.2573 87.3112 63.5323 86.9492 62.7196C86.5873 61.907 86.372 61.0225 86.3157 60.1167C86.2594 59.211 86.3631 58.3017 86.621 57.4408L102.331 5.00125C102.872 3.29147 103.991 1.88772 105.448 1.09257C106.905 0.297418 108.583 0.174531 110.121 0.750395C111.658 1.32626 112.932 2.55476 113.667 4.17112C114.402 5.78748 114.54 7.66226 114.051 9.39138L98.3435 61.8384C98.0854 62.6991 97.6783 63.4944 97.1453 64.1791C96.6124 64.8637 95.9641 65.4241 95.2375 65.8285C94.5108 66.2327 93.7201 66.473 92.9105 66.5354C92.1008 66.5978 91.2881 66.4812 90.5188 66.1922Z" fill="#C3C3C5"/>
<path d="M128.939 56.5293L104.809 56.5594L102.736 63.482C101.843 66.4523 99.9547 68.919 97.4682 70.3623C94.9817 71.8056 92.0914 72.1129 89.4064 71.2192C86.7214 70.3256 84.4514 68.3009 83.0747 65.5718C81.6981 62.8427 81.3224 59.6224 82.0267 56.5895L51.8749 56.6259L50.0807 63.3729C49.2677 66.4324 47.4065 69.0084 44.9027 70.5394C42.3989 72.0703 39.4556 72.432 36.7143 71.5456C33.9731 70.6592 31.6563 68.5967 30.2689 65.8075C28.8815 63.0184 28.536 59.7289 29.3078 56.656L7.21733 56.6848C3.27692 56.6334 0.0463292 58.4309 0.000354132 62.8561C-0.0184845 64.9738 0.714966 67.0133 2.03958 68.5265C3.36419 70.0398 5.17163 70.9029 7.06482 70.9264L8.9969 70.944L19.9861 122.326L20.078 122.74C20.078 122.74 20.17 134.942 32.6853 135.098C55.1828 135.392 79.3478 135.703 101.844 135.997C114.36 136.152 114.699 123.969 114.699 123.969L114.792 123.535L126.843 72.4655L128.774 72.4968C129.712 72.5093 130.642 72.3152 131.512 71.9256C132.382 71.5359 133.176 70.9584 133.846 70.2259C134.517 69.4933 135.052 68.6202 135.421 67.6564C135.79 66.6925 135.986 65.6568 135.997 64.6084C136.008 63.56 135.835 62.5193 135.486 61.5459C135.138 60.5725 134.622 59.6853 133.967 58.9351C133.312 58.1849 132.531 57.5863 131.67 57.1735C130.808 56.7607 129.882 56.5418 128.945 56.5293H128.939ZM40.3127 120.027C40.3133 120.643 40.2045 121.254 39.9926 121.823C39.7807 122.392 39.4699 122.909 39.0782 123.342C38.6865 123.776 38.2218 124.119 37.7109 124.35C37.2 124.581 36.6532 124.697 36.102 124.69C35.5509 124.683 35.0065 124.554 34.5003 124.31C33.9941 124.067 33.5362 123.713 33.1532 123.269C32.7702 122.826 32.4697 122.302 32.269 121.728C32.0684 121.153 31.9717 120.54 31.9845 119.924L32.2951 89.6096C32.3202 88.3796 32.7784 87.2105 33.5701 86.3565C34.3617 85.5025 35.4228 85.0327 36.5226 85.0492C37.6223 85.0657 38.6717 85.5673 39.4426 86.4448C40.2135 87.3223 40.6434 88.5047 40.639 89.735L40.3127 120.027ZM61.1562 120.304C61.154 120.92 61.0427 121.528 60.8289 122.095C60.6151 122.663 60.303 123.177 59.9105 123.608C59.5181 124.039 59.0531 124.379 58.5425 124.609C58.0318 124.838 57.4857 124.952 56.9355 124.943C56.3854 124.935 55.8421 124.805 55.3372 124.56C54.8323 124.316 54.3757 123.962 53.9938 123.519C53.6118 123.076 53.3122 122.553 53.1121 121.979C52.912 121.406 52.8154 120.794 52.828 120.179L53.1375 89.8818C53.1437 89.269 53.2577 88.6636 53.473 88.1001C53.6884 87.5367 54.0009 87.0262 54.3926 86.5978C54.7843 86.1694 55.2476 85.8315 55.7561 85.6034C56.2645 85.3753 56.8082 85.2614 57.356 85.2684C57.9038 85.2753 58.445 85.4028 58.9487 85.6437C59.4525 85.8846 59.9089 86.2341 60.2918 86.6723C60.6748 87.1104 60.9769 87.6287 61.1808 88.1975C61.3847 88.7662 61.4865 89.3744 61.4803 89.9871L61.1562 120.304ZM81.9987 120.564C81.9925 121.175 81.8787 121.78 81.6637 122.342C81.4488 122.904 81.1369 123.414 80.7459 123.842C80.3549 124.269 79.8924 124.606 79.3849 124.834C78.8774 125.062 78.3348 125.175 77.788 125.168C77.2412 125.161 76.7011 125.034 76.1983 124.794C75.6955 124.553 75.24 124.204 74.8577 123.767C74.4755 123.33 74.174 122.812 73.9705 122.245C73.7669 121.677 73.6654 121.07 73.6716 120.458L73.981 90.1464C73.9952 88.9112 74.4474 87.7329 75.2382 86.8707C76.029 86.0084 77.0936 85.5329 78.1979 85.5487C79.3021 85.5645 80.3555 86.0703 81.1263 86.9549C81.8972 87.8395 82.3223 89.0304 82.3082 90.2656L81.9987 120.564ZM102.843 120.84C102.831 122.075 102.381 123.255 101.591 124.119C100.801 124.983 99.7372 125.46 98.6327 125.447C97.5281 125.433 96.4737 124.929 95.7013 124.046C94.9289 123.163 94.5018 121.972 94.514 120.737L94.8246 90.4224C94.85 89.197 95.3061 88.0321 96.0941 87.1804C96.8821 86.3286 97.9384 85.8585 99.0341 85.8721C100.13 85.8856 101.177 86.3816 101.948 87.2527C102.719 88.1237 103.152 89.2995 103.153 90.5252L102.843 120.84Z" fill="#C3C3C5"/>
<path d="M37.9497 66.544C36.3796 66.0208 35.0595 64.8214 34.2798 63.2097C33.5001 61.598 33.3245 59.7058 33.7917 57.9494L47.9106 4.94041C48.1356 4.06148 48.5141 3.24119 49.0244 2.52702C49.5347 1.81285 50.1665 1.21897 50.8834 0.779766C51.6002 0.340559 52.3878 0.0647422 53.2005 -0.0317203C54.0133 -0.128183 54.8351 -0.0433755 55.6183 0.217793C56.4016 0.478962 57.1308 0.911305 57.7637 1.4898C58.3965 2.0683 58.9206 2.78145 59.3054 3.588C59.6903 4.39455 59.9283 5.27847 60.0057 6.1886C60.0832 7.09873 59.9984 8.017 59.7565 8.89027L45.641 61.893C45.4092 62.7634 45.0263 63.5742 44.5143 64.279C44.0022 64.9839 43.371 65.569 42.6568 66.0009C41.9425 66.4328 41.1592 66.7031 40.3515 66.7963C39.5439 66.8895 38.7277 66.8037 37.9497 66.544Z" fill="#C3C3C5"/>
</svg>
