<svg width="96" height="96" viewBox="0 0 96 96" fill="none" xmlns="http://www.w3.org/2000/svg">
<path d="M19.5003 55.26C18.4544 52.1164 17.652 48.8969 17.1003 45.63C17.0594 43.4219 17.4905 41.2304 18.3649 39.2023C19.2393 37.1742 20.5367 35.3563 22.1703 33.87C25.4512 30.9207 29.3144 28.6927 33.5103 27.33C48.3419 21.9759 64.5787 21.9759 79.4103 27.33C83.7009 28.7287 87.6472 31.0188 90.9903 34.05C92.6333 35.5739 93.9266 37.4357 94.7811 39.5073C95.6356 41.5789 96.0311 43.811 95.9403 46.05C95.0155 50.7448 92.815 55.094 89.5803 58.62C86.7303 62.46 83.9103 66.78 84.1803 71.52C84.798 74.3487 85.229 77.2148 85.4703 80.1C85.2993 81.5956 84.8123 83.0376 84.0417 84.3307C83.2711 85.6237 82.2344 86.7381 81.0003 87.6001C78.55 89.3107 75.8035 90.5517 72.9003 91.26C62.1521 94.7206 50.5704 94.5943 39.9003 90.9C33.0212 88.2663 27.1156 83.5858 22.9803 77.49C20.8577 74.5576 19.3943 71.2009 18.6903 67.65C18.7238 65.8353 19.0272 64.0356 19.5903 62.31C19.9958 59.9746 19.9652 57.5843 19.5003 55.26Z" fill="url(#paint0_linear_13943_127739)"/>
<path d="M27.2102 6.66105C26.9363 6.64926 26.6779 6.53082 26.4902 6.33105C26.3921 6.23851 26.314 6.12691 26.2606 6.0031C26.2072 5.87929 26.1797 5.74588 26.1797 5.61105C26.1797 5.47622 26.2072 5.34281 26.2606 5.219C26.314 5.09519 26.3921 4.98359 26.4902 4.89105L28.8302 2.55105C28.9254 2.45215 29.0395 2.37347 29.1658 2.31973C29.2921 2.26598 29.4279 2.23828 29.5652 2.23828C29.7025 2.23828 29.8383 2.26598 29.9646 2.31973C30.0909 2.37347 30.205 2.45215 30.3002 2.55105L32.3702 4.62105C32.4732 4.82363 32.5077 5.05416 32.4686 5.27803C32.4294 5.50189 32.3186 5.707 32.1529 5.86255C31.9872 6.0181 31.7756 6.11569 31.5497 6.14067C31.3238 6.16564 31.0959 6.11665 30.9002 6.00105L29.5502 4.65105L27.9602 6.24105C27.8706 6.35867 27.7578 6.45664 27.6288 6.52888C27.4998 6.60113 27.3573 6.64611 27.2102 6.66105Z" fill="#FF9D23"/>
<path d="M89.9996 68.7874C89.861 68.7893 89.7234 68.7639 89.5946 68.7124C89.4659 68.6609 89.3486 68.5844 89.2496 68.4874C89.0641 68.2876 88.9609 68.025 88.9609 67.7524C88.9609 67.4797 89.0641 67.2171 89.2496 67.0174L91.5896 64.6774C91.7894 64.4918 92.052 64.3887 92.3246 64.3887C92.5973 64.3887 92.8599 64.4918 93.0596 64.6774L95.1296 66.7474C95.2813 66.9496 95.3549 67.1997 95.337 67.4518C95.3191 67.7039 95.2108 67.9411 95.0321 68.1198C94.8534 68.2985 94.6162 68.4068 94.3641 68.4247C94.1119 68.4426 93.8618 68.369 93.6596 68.2174L92.3396 66.8974L90.7196 68.4874C90.6285 68.5865 90.5169 68.6647 90.3926 68.7165C90.2683 68.7683 90.1342 68.7925 89.9996 68.7874Z" fill="#9495FA"/>
<path d="M1.05041 44.6394C0.911778 44.6414 0.774129 44.6159 0.645403 44.5644C0.516677 44.5129 0.399423 44.4365 0.300407 44.3394C0.114848 44.1396 0.0117188 43.8771 0.0117188 43.6044C0.0117188 43.3318 0.114848 43.0692 0.300407 42.8694L3.30041 39.8694C3.39557 39.7705 3.50972 39.6918 3.63602 39.6381C3.76231 39.5843 3.89815 39.5566 4.03541 39.5566C4.17266 39.5566 4.3085 39.5843 4.4348 39.6381C4.56109 39.6918 4.67524 39.7705 4.77041 39.8694C4.95597 40.0692 5.05909 40.3318 5.05909 40.6044C5.05909 40.8771 4.95597 41.1396 4.77041 41.3394L1.77041 44.3394C1.57963 44.5308 1.32067 44.6387 1.05041 44.6394Z" fill="#9495FA"/>
<path d="M82.829 30.5993C82.5587 30.5986 82.2998 30.4907 82.109 30.2993C81.9234 30.0995 81.8203 29.837 81.8203 29.5643C81.8203 29.2916 81.9234 29.0291 82.109 28.8293L85.739 25.1993C85.8293 25.0789 85.9443 24.9794 86.0764 24.9074C86.2085 24.8354 86.3545 24.7926 86.5046 24.7819C86.6546 24.7713 86.8052 24.793 86.9462 24.8456C87.0871 24.8982 87.2151 24.9805 87.3215 25.0868C87.4278 25.1932 87.5101 25.3212 87.5627 25.4621C87.6153 25.6031 87.637 25.7537 87.6264 25.9037C87.6157 26.0538 87.5729 26.1998 87.5009 26.3319C87.4289 26.464 87.3293 26.579 87.209 26.6693L83.579 30.2993C83.48 30.3963 83.3627 30.4728 83.234 30.5243C83.1053 30.5758 82.9676 30.6013 82.829 30.5993Z" fill="#FF4B4D"/>
<path d="M14.579 85.382C14.3087 85.3813 14.0498 85.2734 13.859 85.082C13.6734 84.8822 13.5703 84.6196 13.5703 84.347C13.5703 84.0743 13.6734 83.8118 13.859 83.612L17.489 80.012C17.5842 79.9131 17.6983 79.8344 17.8246 79.7807C17.9509 79.7269 18.0867 79.6992 18.224 79.6992C18.3613 79.6992 18.4971 79.7269 18.6234 79.7807C18.7497 79.8344 18.8638 79.9131 18.959 80.012C19.1495 80.2032 19.2565 80.4621 19.2565 80.732C19.2565 81.0019 19.1495 81.2608 18.959 81.452L15.329 85.082C15.23 85.179 15.1127 85.2555 14.984 85.307C14.8553 85.3585 14.7176 85.384 14.579 85.382Z" fill="#0000DB"/>
<path d="M82.829 93.2687C82.5587 93.268 82.2998 93.1601 82.109 92.9687C81.9234 92.7689 81.8203 92.5064 81.8203 92.2337C81.8203 91.9611 81.9234 91.6985 82.109 91.4987L85.739 87.8987C85.8342 87.7998 85.9483 87.7211 86.0746 87.6674C86.2009 87.6136 86.3367 87.5859 86.474 87.5859C86.6113 87.5859 86.7471 87.6136 86.8734 87.6674C86.9997 87.7211 87.1138 87.7998 87.209 87.8987C87.3995 88.0899 87.5065 88.3488 87.5065 88.6187C87.5065 88.8886 87.3995 89.1475 87.209 89.3387L83.579 92.9987C83.3742 93.1838 83.1048 93.2808 82.829 93.2687Z" fill="#FF9D23"/>
<path d="M76.4077 47.4023H55.9777C54.3871 47.4023 53.0977 48.6918 53.0977 50.2823V75.9623C53.0977 77.5529 54.3871 78.8423 55.9777 78.8423H76.4077C77.9982 78.8423 79.2877 77.5529 79.2877 75.9623V50.2823C79.2877 48.6918 77.9982 47.4023 76.4077 47.4023Z" fill="#9495FA" stroke="#0000DB" stroke-width="1.98" stroke-linecap="round" stroke-linejoin="round"/>
<path d="M76.4378 49.5586H55.9778C55.5802 49.5586 55.2578 49.8809 55.2578 50.2786V75.9586C55.2578 76.3562 55.5802 76.6786 55.9778 76.6786H76.4378C76.8355 76.6786 77.1578 76.3562 77.1578 75.9586V50.2786C77.1578 49.8809 76.8355 49.5586 76.4378 49.5586Z" fill="white"/>
<path d="M61.23 61.0814C60.0999 61.0579 59.0241 60.5923 58.2333 59.7847C57.4425 58.9771 56.9998 57.8917 57 56.7614C57.0079 55.6181 57.4655 54.5239 58.274 53.7154C59.0824 52.9069 60.1767 52.4493 61.32 52.4414C62.4633 52.4493 63.5576 52.9069 64.366 53.7154C65.1745 54.5239 65.6321 55.6181 65.64 56.7614C65.6401 57.3364 65.5255 57.9056 65.3028 58.4357C65.0801 58.9657 64.7538 59.446 64.3431 59.8484C63.9323 60.2507 63.4454 60.567 62.9108 60.7788C62.3763 60.9905 61.8048 61.0934 61.23 61.0814Z" fill="#FF9D23"/>
<path d="M69.1797 52.3555H75.5697" stroke="#0000DB" stroke-width="1.98" stroke-linecap="round" stroke-linejoin="round"/>
<path d="M69.1797 56.6738H75.5697" stroke="#FF4B4D" stroke-width="1.98" stroke-linecap="round" stroke-linejoin="round"/>
<path d="M69.1797 60.9922H75.5697" stroke="#0000DB" stroke-width="1.98" stroke-linecap="round" stroke-linejoin="round"/>
<path d="M56.8203 65.3164H75.5703" stroke="#0000DB" stroke-width="1.98" stroke-linecap="round" stroke-linejoin="round"/>
<path d="M56.8203 69.6348H75.5703" stroke="#FF4B4D" stroke-width="1.98" stroke-linecap="round" stroke-linejoin="round"/>
<path d="M56.8203 73.9531H75.5703" stroke="#0000DB" stroke-width="1.98" stroke-linecap="round" stroke-linejoin="round"/>
<path d="M38.2491 34.2064V70.7464L10.2891 58.2964V24.0664L38.2491 34.2064Z" fill="#FED3BE" stroke="#0000DB" stroke-width="1.98" stroke-linecap="round" stroke-linejoin="round"/>
<path d="M20.4922 27.752V38.102L24.2722 35.942L28.0222 41.432V30.482L20.4922 27.752Z" fill="#F86C66" stroke="#0000DB" stroke-width="1.98" stroke-linecap="round" stroke-linejoin="round"/>
<path d="M66.18 24.002V47.402H55.95C55.5746 47.3979 55.2022 47.4689 54.8546 47.6107C54.507 47.7525 54.1912 47.9623 53.9258 48.2277C53.6603 48.4932 53.4506 48.809 53.3088 49.1566C53.167 49.5042 53.096 49.8766 53.1 50.252V64.1419L38.25 70.742V34.202L66.18 24.002Z" fill="#FED3BE" stroke="#0000DB" stroke-width="1.98" stroke-linecap="round" stroke-linejoin="round"/>
<path d="M66.2091 24.0645L38.2491 34.2045L10.2891 24.0645L38.2491 13.8945L66.2091 24.0645Z" fill="#FED3BE" stroke="#0000DB" stroke-width="1.98" stroke-linecap="round" stroke-linejoin="round"/>
<defs>
<linearGradient id="paint0_linear_13943_127739" x1="56.5203" y1="23.31" x2="56.5203" y2="93.75" gradientUnits="userSpaceOnUse">
<stop stop-color="white" stop-opacity="0.25"/>
<stop offset="1" stop-color="#FF9D23"/>
</linearGradient>
</defs>
</svg>
