<svg width="194" height="148" viewBox="0 0 194 148" fill="none" xmlns="http://www.w3.org/2000/svg">
<path d="M136.038 70.5782C137.15 71.2401 137.52 72.6822 136.803 73.76C131.255 82.1041 123.165 88.4696 113.703 91.8892C103.504 95.5749 92.3432 95.6104 82.1215 91.9896C71.8997 88.3688 63.2497 81.3158 57.6451 72.0323C52.0406 62.7488 49.8284 51.8092 51.3854 41.0775C52.9425 30.3458 58.1724 20.4859 66.1842 13.178C74.1959 5.87 84.4937 1.56608 95.323 0.999546C106.152 0.433011 116.843 3.63891 125.574 10.071C133.674 16.0387 139.622 24.441 142.569 34.0176C142.95 35.2547 142.186 36.5322 140.931 36.8507C139.677 37.1692 138.408 36.4077 138.02 35.1728C135.344 26.6467 130.02 19.169 122.793 13.8446C114.936 8.05577 105.314 5.17047 95.5679 5.68035C85.8215 6.19023 76.5535 10.0638 69.3429 16.6409C62.1324 23.2181 57.4254 32.0919 56.0241 41.7505C54.6227 51.409 56.6137 61.2547 61.6578 69.6098C66.7019 77.965 74.4869 84.3127 83.6865 87.5714C92.8861 90.8301 102.931 90.7982 112.11 87.481C120.552 84.43 127.781 78.7735 132.77 71.3596C133.492 70.2858 134.925 69.9163 136.038 70.5782Z" fill="#D3D3D3"/>
<path d="M80.3035 64.251C78.3762 64.251 76.658 63.8964 75.1489 63.1873C73.6489 62.4782 72.458 61.501 71.5762 60.2555C70.6944 59.01 70.2353 57.5828 70.1989 55.9737H75.9262C75.9898 57.0555 76.4444 57.9328 77.2898 58.6055C78.1353 59.2782 79.1398 59.6146 80.3035 59.6146C81.2308 59.6146 82.0489 59.41 82.758 59.001C83.4762 58.5828 84.0353 58.0055 84.4353 57.2691C84.8444 56.5237 85.0489 55.6691 85.0489 54.7055C85.0489 53.7237 84.8398 52.86 84.4217 52.1146C84.0126 51.3691 83.4444 50.7873 82.7171 50.3691C81.9898 49.951 81.158 49.7373 80.2217 49.7282C79.4035 49.7282 78.608 49.8964 77.8353 50.2328C77.0717 50.5691 76.4762 51.0282 76.0489 51.61L70.7989 50.6691L72.1217 35.9419H89.1944V40.7691H76.9898L76.2671 47.7646H76.4308C76.9217 47.0737 77.6626 46.501 78.6535 46.0464C79.6444 45.5919 80.7535 45.3646 81.9808 45.3646C83.6626 45.3646 85.1626 45.76 86.4808 46.551C87.7989 47.3419 88.8398 48.4282 89.6035 49.81C90.3671 51.1828 90.7444 52.7646 90.7353 54.5555C90.7444 56.4373 90.308 58.11 89.4262 59.5737C88.5535 61.0282 87.3308 62.1737 85.758 63.01C84.1944 63.8373 82.3762 64.251 80.3035 64.251ZM97.4035 64.2237C96.5035 64.2237 95.7308 63.9055 95.0853 63.2691C94.4489 62.6237 94.1308 61.851 94.1308 60.951C94.1308 60.06 94.4489 59.2964 95.0853 58.66C95.7308 58.0237 96.5035 57.7055 97.4035 57.7055C98.2762 57.7055 99.0398 58.0237 99.6944 58.66C100.349 59.2964 100.676 60.06 100.676 60.951C100.676 61.551 100.522 62.101 100.213 62.601C99.9126 63.0919 99.5171 63.4873 99.0262 63.7873C98.5353 64.0782 97.9944 64.2237 97.4035 64.2237ZM115.216 64.4828C112.871 64.4737 110.852 63.8964 109.161 62.751C107.48 61.6055 106.184 59.9464 105.275 57.7737C104.375 55.601 103.93 52.9873 103.939 49.9328C103.939 46.8873 104.389 44.2919 105.289 42.1464C106.198 40.001 107.493 38.3691 109.175 37.251C110.866 36.1237 112.88 35.56 115.216 35.56C117.552 35.56 119.561 36.1237 121.243 37.251C122.934 38.3782 124.234 40.0146 125.143 42.16C126.052 44.2964 126.502 46.8873 126.493 49.9328C126.493 52.9964 126.039 55.6146 125.13 57.7873C124.23 59.96 122.939 61.6191 121.257 62.7646C119.575 63.91 117.561 64.4828 115.216 64.4828ZM115.216 59.5873C116.816 59.5873 118.093 58.7828 119.048 57.1737C120.002 55.5646 120.475 53.151 120.466 49.9328C120.466 47.8146 120.248 46.051 119.811 44.6419C119.384 43.2328 118.775 42.1737 117.984 41.4646C117.202 40.7555 116.28 40.401 115.216 40.401C113.625 40.401 112.352 41.1964 111.398 42.7873C110.443 44.3782 109.961 46.76 109.952 49.9328C109.952 52.0782 110.166 53.8691 110.593 55.3055C111.03 56.7328 111.643 57.8055 112.434 58.5237C113.225 59.2328 114.152 59.5873 115.216 59.5873Z" fill="#17092B"/>
<path d="M19.4547 119.266L21.8975 124.151C22.2306 124.831 23.1189 125.483 23.8684 125.608L28.2959 126.344C31.1272 126.816 31.7934 128.87 29.7532 130.896L26.3111 134.338C25.7282 134.921 25.409 136.046 25.5894 136.851L26.5748 141.112C27.3521 144.484 25.5616 145.789 22.5776 144.026L18.4277 141.57C17.6782 141.125 16.4429 141.125 15.6796 141.57L11.5296 144.026C8.55947 145.789 6.75516 144.47 7.5324 141.112L8.51783 136.851C8.69827 136.046 8.37904 134.921 7.79611 134.338L4.35404 130.896C2.32766 128.87 2.97999 126.816 5.81137 126.344L10.2389 125.608C10.9745 125.483 11.8627 124.831 12.1959 124.151L14.6386 119.266C15.971 116.615 18.1362 116.615 19.4547 119.266Z" fill="#FFA439"/>
<path d="M59.4274 119.266L61.8701 124.151C62.2032 124.831 63.0915 125.483 63.841 125.608L68.2685 126.344C71.0999 126.816 71.7661 128.87 69.7258 130.896L66.2838 134.338C65.7008 134.921 65.3816 136.046 65.562 136.851L66.5475 141.112C67.3247 144.484 65.5343 145.789 62.5502 144.026L58.4003 141.57C57.6508 141.125 56.4156 141.125 55.6522 141.57L51.5023 144.026C48.5321 145.789 46.7278 144.47 47.5051 141.112L48.4905 136.851C48.6709 136.046 48.3517 134.921 47.7688 134.338L44.3267 130.896C42.3003 128.87 42.9526 126.816 45.784 126.344L50.2115 125.608C50.9471 125.483 51.8354 124.831 52.1685 124.151L54.6113 119.266C55.9437 116.615 58.1089 116.615 59.4274 119.266Z" fill="#FFA439"/>
<path d="M99.4 119.266L101.843 124.151C102.176 124.831 103.064 125.483 103.814 125.608L108.241 126.344C111.073 126.816 111.739 128.87 109.698 130.896L106.256 134.338C105.673 134.921 105.354 136.046 105.535 136.851L106.52 141.112C107.297 144.484 105.507 145.789 102.523 144.026L98.373 141.57C97.6235 141.125 96.3882 141.125 95.6249 141.57L91.475 144.026C88.5048 145.789 86.7005 144.47 87.4777 141.112L88.4631 136.851C88.6436 136.046 88.3244 134.921 87.7414 134.338L84.2994 130.896C82.273 128.87 82.9253 126.816 85.7567 126.344L90.1842 125.608C90.9198 125.483 91.8081 124.831 92.1412 124.151L94.5839 119.266C95.9163 116.615 98.0815 116.615 99.4 119.266Z" fill="#FFA439"/>
<path d="M139.373 119.266L141.815 124.151C142.149 124.831 143.037 125.483 143.786 125.608L148.214 126.344C151.045 126.816 151.711 128.87 149.671 130.896L146.229 134.338C145.646 134.921 145.327 136.046 145.507 136.851L146.493 141.112C147.27 144.484 145.48 145.789 142.496 144.026L138.346 141.57C137.596 141.125 136.361 141.125 135.598 141.57L131.448 144.026C128.477 145.789 126.673 144.47 127.45 141.112L128.436 136.851C128.616 136.046 128.297 134.921 127.714 134.338L124.272 130.896C122.246 128.87 122.898 126.816 125.729 126.344L130.157 125.608C130.892 125.483 131.781 124.831 132.114 124.151L134.557 119.266C135.889 116.615 138.054 116.615 139.373 119.266Z" fill="#FFA439"/>
<path d="M179.345 119.266L181.788 124.151C182.121 124.831 183.009 125.483 183.759 125.608L188.186 126.344C191.018 126.816 191.684 128.87 189.644 130.896L186.202 134.338C185.619 134.921 185.3 136.046 185.48 136.851L186.465 141.112C187.243 144.484 185.452 145.789 182.468 144.026L178.318 141.57C177.569 141.125 176.334 141.125 175.57 141.57L171.42 144.026C168.45 145.789 166.646 144.47 167.423 141.112L168.408 136.851C168.589 136.046 168.27 134.921 167.687 134.338L164.245 130.896C162.218 128.87 162.871 126.816 165.702 126.344L170.129 125.608C170.865 125.483 171.753 124.831 172.086 124.151L174.529 119.266C175.862 116.615 178.027 116.615 179.345 119.266Z" fill="#FFA439"/>
</svg>
