<svg width="180" height="180" viewBox="0 0 180 180" fill="none" xmlns="http://www.w3.org/2000/svg">
<path d="M15 60L15 54.375C11.8934 54.375 9.375 56.8934 9.375 60H15ZM98.3333 170.625C101.44 170.625 103.958 168.107 103.958 165C103.958 161.893 101.44 159.375 98.3333 159.375V170.625ZM159.375 93.75C159.375 96.8566 161.893 99.375 165 99.375C168.107 99.375 170.625 96.8566 170.625 93.75H159.375ZM165 60H170.625C170.625 56.8934 168.107 54.375 165 54.375V60ZM24.7631 155.586L28.6676 151.536L28.6676 151.536L24.7631 155.586ZM124.018 110.4L127.66 114.686L127.66 114.686L124.018 110.4ZM134.444 109.63C137.001 107.867 137.644 104.364 135.88 101.806C134.117 99.249 130.614 98.6057 128.056 100.37L134.444 109.63ZM124.018 129.6L120.376 133.887L120.376 133.887L124.018 129.6ZM128.056 139.63C130.614 141.394 134.117 140.751 135.88 138.194C137.644 135.636 137.001 132.133 134.444 130.37L128.056 139.63ZM97.5 159.375C94.3934 159.375 91.875 161.893 91.875 165C91.875 168.107 94.3934 170.625 97.5 170.625V159.375ZM9.375 60L9.375 100.714H20.625L20.625 60H9.375ZM81.6667 170.625H98.3333V159.375H81.6667V170.625ZM170.625 93.75V60H159.375V93.75H170.625ZM9.375 100.714C9.375 115.702 9.36217 127.529 10.6493 136.76C11.962 146.175 14.7222 153.717 20.8586 159.635L28.6676 151.536C25.0409 148.039 22.9196 143.298 21.7915 135.207C20.6378 126.933 20.625 116.031 20.625 100.714H9.375ZM81.6667 159.375C65.7997 159.375 54.4454 159.364 45.8141 158.245C37.3244 157.144 32.323 155.061 28.6676 151.536L20.8586 159.635C26.9664 165.524 34.7033 168.149 44.3677 169.402C53.8908 170.636 66.1067 170.625 81.6667 170.625V159.375ZM15 65.625L165 65.625V54.375L15 54.375L15 65.625ZM120.376 106.113C117.921 108.199 115.596 110.155 113.965 112.014C112.202 114.022 110.625 116.596 110.625 120H121.875C121.875 120.404 121.592 120.378 122.42 119.435C123.378 118.344 124.936 117.001 127.66 114.686L120.376 106.113ZM131.25 105C128.056 100.37 128.056 100.37 128.056 100.37C128.056 100.37 128.056 100.37 128.056 100.37C128.055 100.37 128.055 100.371 128.054 100.371C128.054 100.371 128.052 100.372 128.051 100.373C128.048 100.375 128.044 100.378 128.039 100.382C128.028 100.389 128.013 100.399 127.994 100.412C127.957 100.439 127.902 100.476 127.832 100.525C127.693 100.622 127.493 100.761 127.247 100.935C126.754 101.281 126.069 101.767 125.3 102.324C123.8 103.41 121.842 104.868 120.376 106.113L127.66 114.686C128.771 113.743 130.429 112.5 131.9 111.435C132.617 110.915 133.257 110.461 133.718 110.137C133.948 109.975 134.132 109.847 134.258 109.76C134.32 109.716 134.368 109.683 134.4 109.661C134.416 109.65 134.427 109.642 134.435 109.637C134.438 109.634 134.441 109.632 134.442 109.631C134.443 109.631 134.444 109.63 134.444 109.63C134.444 109.63 134.444 109.63 134.444 109.63C134.444 109.63 134.444 109.63 134.444 109.63C134.444 109.63 134.444 109.63 131.25 105ZM127.66 125.314C124.936 122.999 123.378 121.656 122.42 120.565C121.592 119.622 121.875 119.596 121.875 120H110.625C110.625 123.404 112.202 125.978 113.965 127.986C115.596 129.845 117.921 131.801 120.376 133.887L127.66 125.314ZM131.25 135C134.444 130.37 134.444 130.37 134.444 130.37C134.444 130.37 134.444 130.37 134.444 130.37C134.444 130.37 134.444 130.37 134.444 130.37C134.444 130.37 134.443 130.369 134.442 130.369C134.441 130.368 134.438 130.366 134.435 130.363C134.427 130.358 134.416 130.35 134.4 130.339C134.368 130.317 134.32 130.284 134.258 130.24C134.132 130.153 133.948 130.025 133.718 129.863C133.257 129.539 132.617 129.085 131.9 128.565C130.429 127.5 128.771 126.257 127.66 125.314L120.376 133.887C121.842 135.132 123.8 136.59 125.3 137.676C126.069 138.233 126.754 138.719 127.247 139.065C127.493 139.239 127.693 139.378 127.832 139.475C127.902 139.524 127.957 139.561 127.994 139.588C128.013 139.601 128.028 139.611 128.039 139.618C128.044 139.622 128.048 139.625 128.051 139.627C128.052 139.628 128.054 139.629 128.054 139.629C128.055 139.629 128.055 139.63 128.056 139.63C128.056 139.63 128.056 139.63 128.056 139.63C128.056 139.63 128.056 139.63 131.25 135ZM116.25 125.625H142.5V114.375H116.25V125.625ZM159.375 142.5C159.375 151.82 151.82 159.375 142.5 159.375V170.625C158.033 170.625 170.625 158.033 170.625 142.5L159.375 142.5ZM142.5 125.625C151.82 125.625 159.375 133.18 159.375 142.5L170.625 142.5C170.625 126.967 158.033 114.375 142.5 114.375V125.625ZM97.5 170.625L142.5 170.625V159.375L97.5 159.375V170.625Z" fill="#D3D3D3"/>
<path d="M15 60L22.2115 42.6923C27.8045 29.2693 30.6009 22.5577 36.2692 18.7789C41.9375 15 49.2084 15 63.75 15L116.25 15C130.792 15 138.062 15 143.731 18.7789C149.399 22.5577 152.196 29.2693 157.788 42.6923L165 60" stroke="#D3D3D3" stroke-width="11.25" stroke-linecap="round"/>
<path d="M90 60L90 15" stroke="#D3D3D3" stroke-width="11.25" stroke-linecap="round"/>
<path d="M75 90L105 90" stroke="#D3D3D3" stroke-width="11.25" stroke-linecap="round"/>
</svg>
