<svg width="22" height="21" viewBox="0 0 22 21" fill="none" xmlns="http://www.w3.org/2000/svg">
<path fill-rule="evenodd" clip-rule="evenodd" d="M11.0572 0.375H11.0572C13.2479 0.374987 14.9686 0.374977 16.312 0.555594C17.6886 0.740681 18.7809 1.12772 19.6391 1.98591C20.4973 2.84411 20.8843 3.93637 21.0694 5.31302C21.25 6.65644 21.25 8.37714 21.25 10.5678V10.6822C21.25 12.8729 21.25 14.5936 21.0694 15.937C20.8843 17.3136 20.4973 18.4059 19.6391 19.2641C18.7809 20.1223 17.6886 20.5093 16.312 20.6944C14.9686 20.875 13.2479 20.875 11.0572 20.875H10.9428C8.7521 20.875 7.03144 20.875 5.68802 20.6944C4.31137 20.5093 3.21911 20.1223 2.36091 19.2641C1.50272 18.4059 1.11568 17.3136 0.930594 15.937C0.749977 14.5936 0.749987 12.8729 0.75 10.6822V10.6822V10.5678V10.5678C0.749987 8.37711 0.749977 6.65644 0.930594 5.31302C1.11568 3.93637 1.50272 2.84411 2.36091 1.98591C3.21911 1.12772 4.31137 0.740681 5.68802 0.555594C7.03144 0.374977 8.75212 0.374987 10.9428 0.375H10.9428H11.0572ZM15.8775 6.64538C16.1425 7.12993 15.9645 7.73757 15.48 8.00256C14.1086 8.75252 12.8208 10.3225 11.8374 11.8282C11.3581 12.5622 10.9735 13.2457 10.709 13.7454C10.577 13.9947 10.4756 14.1971 10.4079 14.3355L10.3096 14.5409C10.1551 14.8786 9.8261 15.1032 9.45528 15.1237C9.08436 15.1441 8.73267 14.9573 8.54198 14.6385C8.23126 14.119 7.73753 13.6448 7.27997 13.2831C7.05764 13.1073 6.85752 12.9687 6.71471 12.8752L6.50442 12.7437C6.02493 12.4699 5.85797 11.8594 6.13152 11.3798C6.40513 10.9 7.01585 10.7329 7.49559 11.0065L7.81063 11.2022C7.99282 11.3215 8.2427 11.4947 8.52038 11.7142C8.73258 11.882 8.96984 12.0837 9.20939 12.3161C9.46624 11.8547 9.78717 11.31 10.1629 10.7346C11.1796 9.17785 12.6917 7.24786 14.5204 6.24782C15.0049 5.98282 15.6125 6.16082 15.8775 6.64538Z" fill="#00215B"/>
</svg>
