<svg width="24" height="24" viewBox="0 0 24 24" fill="none" xmlns="http://www.w3.org/2000/svg">
<path d="M18.8002 5H5.20018C5.00445 5.00275 4.81384 5.06288 4.65196 5.17294C4.49009 5.283 4.36408 5.43815 4.28955 5.61915C4.21502 5.80015 4.19525 5.99905 4.23269 6.19118C4.27013 6.38331 4.36314 6.56023 4.50018 6.7L9.80018 12.7C10.0002 12.9 10.0002 13.1 10.0002 13.4V17V20.6364C10.0002 20.8372 10.163 21 10.3638 21H11.2002C12.7466 21 14.0002 19.7464 14.0002 18.2V13.4L14.2002 12.7L19.5002 6.7C19.6372 6.56023 19.7302 6.38331 19.7677 6.19118C19.8051 5.99905 19.7853 5.80015 19.7108 5.61915C19.6363 5.43815 19.5103 5.283 19.3484 5.17294C19.1865 5.06288 18.9959 5.00275 18.8002 5Z" stroke="#181818" stroke-width="1.5" stroke-linecap="round" stroke-linejoin="round"/>
</svg>
