<svg width="80" height="81" viewBox="0 0 80 81" fill="none" xmlns="http://www.w3.org/2000/svg">
<path fill-rule="evenodd" clip-rule="evenodd" d="M37.5397 74.28C37.5397 74.28 13.333 53.8933 13.333 33.8333C13.333 26.7609 16.1425 19.9781 21.1435 14.9771C26.1445 9.97614 32.9272 7.16663 39.9997 7.16663C47.0721 7.16663 53.8549 9.97614 58.8559 14.9771C63.8568 19.9781 66.6663 26.7609 66.6663 33.8333C66.6663 53.8933 42.4597 74.28 42.4597 74.28C41.113 75.52 38.8963 75.5066 37.5397 74.28ZM39.9997 45.5C41.5318 45.5 43.0488 45.1982 44.4643 44.6119C45.8798 44.0256 47.1659 43.1662 48.2493 42.0829C49.3326 40.9995 50.192 39.7134 50.7783 38.2979C51.3646 36.8825 51.6663 35.3654 51.6663 33.8333C51.6663 32.3012 51.3646 30.7841 50.7783 29.3687C50.192 27.9532 49.3326 26.6671 48.2493 25.5837C47.1659 24.5004 45.8798 23.641 44.4643 23.0547C43.0488 22.4684 41.5318 22.1666 39.9997 22.1666C36.9055 22.1666 33.938 23.3958 31.7501 25.5837C29.5622 27.7716 28.333 30.7391 28.333 33.8333C28.333 36.9275 29.5622 39.8949 31.7501 42.0829C33.938 44.2708 36.9055 45.5 39.9997 45.5Z" fill="#00215B"/>
</svg>
