<svg width="80" height="81" viewBox="0 0 80 81" fill="none" xmlns="http://www.w3.org/2000/svg">
<g clip-path="url(#clip0_2504_1001)">
<path d="M40.0005 7.16663C42.5664 7.1646 45.115 7.58581 47.5438 8.4133C45.2421 10.7928 43.7923 13.8669 43.4203 17.1565C43.0483 20.4461 43.775 23.7663 45.4872 26.5997C47.1993 29.4332 49.8008 31.6206 52.886 32.8211C55.9712 34.0215 59.3669 34.1677 62.5438 33.2366L63.3338 32.9766V42.2566C63.3343 42.6432 63.4019 43.0266 63.5338 43.39L63.6871 43.7466L69.4071 55.19C69.6722 55.72 69.8048 56.3063 69.7937 56.8988C69.7826 57.4913 69.6281 58.0722 69.3433 58.5919C69.0586 59.1116 68.6521 59.5545 68.1587 59.8828C67.6654 60.211 67.0998 60.4148 66.5105 60.4766L66.1271 60.4966H13.8738C13.281 60.4968 12.697 60.3533 12.1719 60.0783C11.6467 59.8033 11.1961 59.4051 10.8585 58.9178C10.521 58.4305 10.3066 57.8686 10.2338 57.2803C10.161 56.692 10.2319 56.0948 10.4405 55.54L10.5938 55.19L16.3171 43.7466C16.4892 43.4006 16.5997 43.0272 16.6438 42.6433L16.6671 42.26V30.5C16.6671 24.3116 19.1255 18.3767 23.5013 14.0008C27.8772 9.62496 33.8121 7.16663 40.0005 7.16663ZM58.3338 10.5C60.5439 10.5 62.6636 11.3779 64.2264 12.9407C65.7892 14.5035 66.6671 16.6232 66.6671 18.8333C66.6671 21.0434 65.7892 23.1631 64.2264 24.7259C62.6636 26.2887 60.5439 27.1666 58.3338 27.1666C56.1237 27.1666 54.0041 26.2887 52.4412 24.7259C50.8784 23.1631 50.0005 21.0434 50.0005 18.8333C50.0005 16.6232 50.8784 14.5035 52.4412 12.9407C54.0041 11.3779 56.1237 10.5 58.3338 10.5ZM40.0005 70.5C37.9316 70.501 35.9134 69.8604 34.2239 68.6664C32.5344 67.4724 31.2568 65.7838 30.5671 63.8333H49.4338C48.7442 65.7838 47.4666 67.4724 45.7771 68.6664C44.0876 69.8604 42.0693 70.501 40.0005 70.5Z" fill="#00215B"/>
</g>
<defs>
<clipPath id="clip0_2504_1001">
<rect width="80" height="80" fill="white" transform="translate(0 0.5)"/>
</clipPath>
</defs>
</svg>
