<svg width="80" height="81" viewBox="0 0 80 81" fill="none" xmlns="http://www.w3.org/2000/svg">
<path d="M57.903 66.59L67.3697 57.27L65.283 55.18L57.903 62.4567L54.7197 59.2067L52.6297 61.3134L57.903 66.59ZM22.5663 29.6034H57.4397V26.27H22.563L22.5663 29.6034ZM59.9997 74.22C56.2863 74.22 53.1363 72.9256 50.5497 70.3367C47.9608 67.75 46.6663 64.6 46.6663 60.8867C46.6663 57.1734 47.9608 54.0223 50.5497 51.4334C53.1386 48.8445 56.2886 47.5512 59.9997 47.5534C63.7108 47.5556 66.8619 48.8489 69.453 51.4334C72.0441 54.0178 73.3375 57.1689 73.333 60.8867C73.333 64.5978 72.0397 67.7478 69.453 70.3367C66.8619 72.9256 63.7108 74.22 59.9997 74.22ZM13.333 69.73V19.22C13.333 17.7267 13.8575 16.4556 14.9063 15.4067C15.9552 14.3578 17.2263 13.8334 18.7197 13.8334H61.283C62.7719 13.8334 64.0419 14.3578 65.093 15.4067C66.1419 16.4556 66.6663 17.7267 66.6663 19.22V39.0334C64.6841 38.3823 62.653 38.0478 60.573 38.03C58.493 38.0123 56.443 38.28 54.423 38.8334H22.563V42.1667H46.9363C45.2652 43.3245 43.7919 44.6834 42.5163 46.2434C41.2408 47.8034 40.1897 49.5212 39.363 51.3967H22.5663V54.73H38.2663C38.0263 55.6278 37.8397 56.5334 37.7063 57.4467C37.573 58.36 37.5052 59.3134 37.503 60.3067C37.503 61.8289 37.6619 63.3389 37.9797 64.8367C38.2975 66.3345 38.7752 67.7778 39.413 69.1667L39.2997 69.28L35.5163 66.5267L31.0297 69.73L26.543 66.5267L22.0563 69.73L17.5663 66.5267L13.333 69.73Z" fill="#00215B"/>
</svg>
