<svg width="80" height="81" viewBox="0 0 80 81" fill="none" xmlns="http://www.w3.org/2000/svg">
<path d="M39.9997 62.1666C39.9997 66.4666 41.2997 70.5 43.4663 73.8333H19.9997C16.2997 73.8333 13.333 70.8666 13.333 67.1666V13.8333C13.333 12.0652 14.0354 10.3695 15.2856 9.11925C16.5359 7.869 18.2316 7.16663 19.9997 7.16663H23.333V30.5L31.6663 25.5L39.9997 30.5V7.16663H59.9997C61.7678 7.16663 63.4635 7.869 64.7137 9.11925C65.964 10.3695 66.6663 12.0652 66.6663 13.8333V41.1C64.9997 40.7333 63.333 40.5 61.6663 40.5C55.92 40.5 50.409 42.7827 46.3457 46.846C42.2824 50.9093 39.9997 56.4203 39.9997 62.1666ZM76.6663 62.1666C76.6663 70.5 69.9997 77.1666 61.6663 77.1666C53.333 77.1666 46.6663 70.5 46.6663 62.1666C46.6663 53.8333 53.333 47.1666 61.6663 47.1666C69.9997 47.1666 76.6663 53.8333 76.6663 62.1666ZM66.6663 70.7666L53.0663 57.1666C52.1663 58.5666 51.6663 60.3 51.6663 62.1666C51.6663 67.7 56.133 72.1666 61.6663 72.1666C63.533 72.1666 65.2663 71.6666 66.6663 70.7666ZM71.6663 62.1666C71.6663 56.6333 67.1997 52.1666 61.6663 52.1666C59.7997 52.1666 58.0663 52.6666 56.6663 53.5666L70.2663 67.1666C71.1663 65.7666 71.6663 64.0333 71.6663 62.1666Z" fill="#00215B"/>
</svg>
