<svg width="80" height="81" viewBox="0 0 80 81" fill="none" xmlns="http://www.w3.org/2000/svg">
<path fill-rule="evenodd" clip-rule="evenodd" d="M17.5003 34.0166V27.1666C17.5003 21.1993 19.8709 15.4763 24.0904 11.2567C28.31 7.03716 34.033 4.66663 40.0003 4.66663C45.9677 4.66663 51.6907 7.03716 55.9102 11.2567C60.1298 15.4763 62.5003 21.1993 62.5003 27.1666V34.0166C66.217 34.2933 68.6337 34.9933 70.4037 36.7633C73.3337 39.69 73.3337 44.4066 73.3337 53.8333C73.3337 63.26 73.3337 67.9766 70.4037 70.9033C67.477 73.8333 62.7603 73.8333 53.3337 73.8333H26.667C17.2403 73.8333 12.5237 73.8333 9.59699 70.9033C6.66699 67.9766 6.66699 63.26 6.66699 53.8333C6.66699 44.4066 6.66699 39.69 9.59699 36.7633C11.3637 34.9933 13.7837 34.2933 17.5003 34.0166ZM22.5003 27.1666C22.5003 22.5253 24.3441 18.0741 27.626 14.7923C30.9078 11.5104 35.359 9.66663 40.0003 9.66663C44.6416 9.66663 49.0928 11.5104 52.3747 14.7923C55.6566 18.0741 57.5003 22.5253 57.5003 27.1666V33.8466C56.2248 33.8355 54.8359 33.8311 53.3337 33.8333H26.667C25.1625 33.8311 23.7737 33.8355 22.5003 33.8466V27.1666ZM26.667 57.1666C27.551 57.1666 28.3989 56.8154 29.024 56.1903C29.6491 55.5652 30.0003 54.7173 30.0003 53.8333C30.0003 52.9492 29.6491 52.1014 29.024 51.4763C28.3989 50.8511 27.551 50.5 26.667 50.5C25.7829 50.5 24.9351 50.8511 24.31 51.4763C23.6848 52.1014 23.3337 52.9492 23.3337 53.8333C23.3337 54.7173 23.6848 55.5652 24.31 56.1903C24.9351 56.8154 25.7829 57.1666 26.667 57.1666ZM40.0003 57.1666C40.8844 57.1666 41.7322 56.8154 42.3573 56.1903C42.9825 55.5652 43.3337 54.7173 43.3337 53.8333C43.3337 52.9492 42.9825 52.1014 42.3573 51.4763C41.7322 50.8511 40.8844 50.5 40.0003 50.5C39.1163 50.5 38.2684 50.8511 37.6433 51.4763C37.0182 52.1014 36.667 52.9492 36.667 53.8333C36.667 54.7173 37.0182 55.5652 37.6433 56.1903C38.2684 56.8154 39.1163 57.1666 40.0003 57.1666ZM56.667 53.8333C56.667 54.7173 56.3158 55.5652 55.6907 56.1903C55.0656 56.8154 54.2177 57.1666 53.3337 57.1666C52.4496 57.1666 51.6018 56.8154 50.9766 56.1903C50.3515 55.5652 50.0003 54.7173 50.0003 53.8333C50.0003 52.9492 50.3515 52.1014 50.9766 51.4763C51.6018 50.8511 52.4496 50.5 53.3337 50.5C54.2177 50.5 55.0656 50.8511 55.6907 51.4763C56.3158 52.1014 56.667 52.9492 56.667 53.8333Z" fill="#00215B"/>
</svg>
