<svg width="80" height="81" viewBox="0 0 80 81" fill="none" xmlns="http://www.w3.org/2000/svg">
<path d="M23.3333 13.8334C16 13.8334 10 19.8334 10 27.1667C10 34.5 16 40.5 23.3333 40.5C30.6667 40.5 36.6667 34.5 36.6667 27.1667C36.6667 19.8334 30.6667 13.8334 23.3333 13.8334ZM23.3333 33.8334C19.6667 33.8334 16.6667 30.8334 16.6667 27.1667C16.6667 23.5 19.6667 20.5 23.3333 20.5C27 20.5 30 23.5 30 27.1667C30 30.8334 27 33.8334 23.3333 33.8334ZM23.3333 47.1667C10.3333 47.1667 0 53.1667 0 60.5V67.1667H36.6667V60.5H6.66667C6.66667 58.5 12.6667 53.8334 23.3333 53.8334C29.3333 53.8334 34 55.5 36.6667 57.1667V49.8334C33 48.1667 28.3333 47.1667 23.3333 47.1667ZM73.3333 13.8334H50C46.3333 13.8334 43.3333 16.8334 43.3333 20.5V60.5C43.3333 64.1667 46.3333 67.1667 50 67.1667H73.3333C77 67.1667 80 64.1667 80 60.5V20.5C80 16.8334 77 13.8334 73.3333 13.8334ZM53.3333 60.5H50V20.5H53.3333V60.5ZM73.3333 60.5H60V20.5H73.3333V60.5Z" fill="#00215B"/>
</svg>
