<svg width="88" height="81" viewBox="0 0 88 81" fill="none" xmlns="http://www.w3.org/2000/svg">
<g clip-path="url(#clip0_2504_986)">
<path d="M16.0523 12.5182C16.0523 13.6313 16.0659 14.6278 16.0523 15.6262C16.027 17.2288 14.6925 18.0524 13.3211 17.2696C9.46847 15.0875 5.63009 12.8802 1.80595 10.6476C0.434543 9.84924 0.446198 8.2525 1.8176 7.44248C5.60937 5.21637 9.41408 3.01487 13.2317 0.837971C14.6886 0.00658026 16.0018 0.781639 16.0425 2.45608C16.0659 3.42733 16.0425 4.39858 16.0425 5.52134C16.4971 5.52134 16.8992 5.52134 17.3032 5.52134C28.5697 5.52134 39.8363 5.30961 51.1028 5.56602C61.7477 5.80495 70.6657 10.2125 77.785 18.1262C82.8763 23.7925 85.9435 30.4592 86.8875 38.0077C88.2084 48.6293 85.6016 58.2467 78.8223 66.5819C72.6898 74.1227 64.7391 78.6488 55.1101 80.0415C52.4994 80.4203 49.8207 80.4067 47.1711 80.4436C42.2527 80.5136 37.3324 80.498 32.4081 80.4961C30.7162 80.4961 29.3623 79.5248 28.9116 78.0796C28.461 76.6344 28.9116 74.9949 30.1956 74.2218C30.9107 73.7953 31.7234 73.5599 32.5558 73.538C38.154 73.4798 43.7543 73.5031 49.3545 73.4992C63.865 73.4895 76.1067 64.1422 79.3817 49.9949C82.1634 37.9864 78.6047 27.7241 69.3215 19.62C63.5892 14.6142 56.7496 12.392 49.1331 12.4328C38.5484 12.4988 27.9598 12.4852 17.377 12.5066L16.0523 12.5182Z" fill="#00215B"/>
<path d="M34.6714 39.4976V31.9801H47.4919V65.3601H11.7266V31.9995H24.4247V39.5442C25.9437 38.9615 27.3268 38.4817 28.6768 37.9164C28.9634 37.783 29.2757 37.7139 29.5918 37.7139C29.9078 37.7139 30.2201 37.783 30.5067 37.9164C31.8392 38.4758 33.2087 38.9479 34.6714 39.4976ZM31.1574 52.9747C30.6776 55.9545 30.697 55.9797 33.4379 55.9758C36.7674 55.9758 40.0968 55.9758 43.4263 55.9428C43.7254 55.9428 44.2557 55.6825 44.2771 55.498C44.3703 54.6782 44.3179 53.841 44.3179 52.9727L31.1574 52.9747ZM31.0564 58.8022C31.0564 59.5306 31.1011 60.1425 31.0467 60.7447C30.9748 61.5217 31.2215 61.815 32.0548 61.7975C34.8307 61.7451 37.6085 61.7684 40.3843 61.7645H44.279V58.808L31.0564 58.8022Z" fill="#00215B"/>
<path d="M62.8739 23.9149V50.9817C62.8739 52.8601 62.8913 54.7366 62.8622 56.615C62.8622 56.9161 62.7243 57.359 62.5028 57.493C58.6062 59.8434 54.6881 62.155 50.6536 64.5462C50.6283 64.1577 50.5934 63.8489 50.5934 63.5497C50.5713 53.0602 50.5474 42.5752 50.5215 32.0948C50.5215 31.4343 50.7021 31.0653 51.2985 30.7214C54.8707 28.6371 58.4139 26.5043 61.9686 24.3928C62.2115 24.2451 62.4679 24.1266 62.8739 23.9149Z" fill="#00215B"/>
<path d="M62.3847 20.7583C57.9422 23.3943 53.5035 26.038 49.0455 28.6487C48.7153 28.843 48.2432 28.843 47.8353 28.8527C42.8178 28.876 37.8004 28.9032 32.7829 28.8682C31.8718 28.8682 31.629 29.148 31.6621 30.0337C31.7281 31.6771 31.6815 33.3263 31.6815 35.16C30.279 34.4879 28.9348 34.1635 27.5032 35.3543V28.9751H12.7227C13.082 28.6954 13.2238 28.5574 13.3889 28.4603C17.6741 25.9895 21.9618 23.529 26.2522 21.0788C26.6653 20.834 27.1322 20.6946 27.6119 20.6728C39.0714 20.6262 50.5322 20.5951 61.9942 20.5796H62.3575L62.3847 20.7583Z" fill="#00215B"/>
</g>
<defs>
<clipPath id="clip0_2504_986">
<rect width="86.4394" height="80" fill="white" transform="translate(0.780273 0.5)"/>
</clipPath>
</defs>
</svg>
