<svg width="72" height="72" viewBox="0 0 72 72" fill="none" xmlns="http://www.w3.org/2000/svg">
<path d="M60.7484 11.2518C57.5042 7.97549 53.6446 5.37248 49.3914 3.5923C45.1381 1.81213 40.5751 0.889872 35.9643 0.878524C31.3536 0.867176 26.786 1.76696 22.5241 3.52618C18.2621 5.28539 14.3897 7.86938 11.1294 11.1297C7.86913 14.39 5.28515 18.2623 3.52593 22.5243C1.76671 26.7863 0.866932 31.3538 0.87828 35.9646C0.889628 40.5753 1.81188 45.1384 3.59206 49.3916C5.37224 53.6449 7.97525 57.5045 11.2516 60.7487C14.4958 64.025 18.3554 66.628 22.6086 68.4082C26.8619 70.1884 31.4249 71.1106 36.0357 71.122C40.6464 71.1333 45.214 70.2335 49.4759 68.4743C53.7379 66.7151 57.6103 64.1311 60.8706 60.8708C64.1309 57.6105 66.7148 53.7381 68.4741 49.4762C70.2333 45.2142 71.1331 40.6467 71.1217 36.0359C71.1104 31.4252 70.1881 26.8621 68.4079 22.6089C66.6278 18.3556 64.0247 14.496 60.7484 11.2518ZM47.25 28.5002C47.9917 28.5002 48.7167 28.7202 49.3334 29.1322C49.9501 29.5443 50.4307 30.13 50.7145 30.8152C50.9984 31.5004 51.0726 32.2544 50.9279 32.9818C50.7833 33.7093 50.4261 34.3774 49.9016 34.9019C49.3772 35.4263 48.709 35.7835 47.9816 35.9282C47.2542 36.0729 46.5002 35.9986 45.8149 35.7148C45.1297 35.431 44.544 34.9503 44.132 34.3336C43.7199 33.7169 43.5 32.9919 43.5 32.2502C43.4988 31.7574 43.5949 31.2692 43.7829 30.8137C43.971 30.3582 44.2471 29.9443 44.5956 29.5958C44.9441 29.2474 45.3579 28.9712 45.8135 28.7832C46.269 28.5952 46.7572 28.499 47.25 28.5002ZM24.75 28.5002C25.4917 28.5002 26.2167 28.7202 26.8334 29.1322C27.4501 29.5443 27.9307 30.13 28.2145 30.8152C28.4984 31.5004 28.5726 32.2544 28.4279 32.9818C28.2832 33.7093 27.9261 34.3774 27.4016 34.9019C26.8772 35.4263 26.209 35.7835 25.4816 35.9282C24.7542 36.0729 24.0002 35.9986 23.3149 35.7148C22.6297 35.431 22.044 34.9503 21.632 34.3336C21.2199 33.7169 21 32.9919 21 32.2502C20.9988 31.7574 21.0949 31.2692 21.2829 30.8137C21.4709 30.3582 21.7471 29.9443 22.0956 29.5958C22.4441 29.2474 22.8579 28.9712 23.3135 28.7832C23.769 28.5952 24.2572 28.499 24.75 28.5002ZM36 41.0002C43.0969 41.0002 49.0859 45.6081 50.9563 51.9112C51.1125 52.4612 51.3203 53.5002 51.3203 53.5002H20.6875C20.6875 53.5002 20.8922 52.4549 21.0516 51.9112C22.8922 45.6049 28.8953 41.0002 36 41.0002Z" fill="#5F646F"/>
</svg>
